<svg width="52" height="64" viewBox="0 0 52 64" fill="none" xmlns="http://www.w3.org/2000/svg">
<path d="M46.7434 62.2316C46.7271 62.0627 46.6924 61.8962 46.6402 61.7353C46.6247 61.6816 46.6017 61.6306 46.5718 61.5839C46.4032 61.326 46.202 61.0928 45.9738 60.8905C45.8235 60.7554 45.6556 60.6415 45.4954 60.5181C45.2898 60.4376 45.1199 60.2912 44.9282 60.1835C44.7436 60.08 44.5855 59.9319 44.4674 59.7515C44.3495 59.5745 44.2338 59.3927 44.1234 59.2089C44.0214 59.0296 43.9517 58.8324 43.9179 58.627C43.8835 58.4426 43.877 58.2526 43.8611 58.0646C43.8522 57.9611 43.8579 57.8567 43.8779 57.7548C43.8918 57.6808 43.8983 57.6052 43.9116 57.5312C43.9439 57.3512 43.9136 57.1735 43.8892 56.9965C43.8778 56.9217 43.851 56.8503 43.8107 56.7873C43.7104 56.6188 43.5853 56.4678 43.44 56.3397C43.2441 56.1703 43.0481 56.0033 42.8196 55.8835C42.5644 55.7498 42.2984 55.6826 42.0071 55.7197C41.8269 55.7388 41.6499 55.7824 41.4805 55.8493C41.4133 55.8788 41.343 55.8974 41.2741 55.9201C41.2495 55.9317 41.2229 55.9381 41.1958 55.939C41.0438 55.9201 40.889 55.9295 40.7455 55.8504C40.488 55.7076 40.2439 55.5471 40.0454 55.3211C39.9372 55.1938 39.8203 55.0748 39.6957 54.9649C39.6524 54.9312 39.6135 54.8915 39.5803 54.8469C39.4913 54.7147 39.3798 54.6032 39.2792 54.4819C39.1609 54.3388 39.0424 54.196 38.9528 54.0302C38.922 53.9722 38.8847 53.9183 38.8416 53.8696C38.68 53.6891 38.5504 53.4843 38.4208 53.2795C38.3564 53.1771 38.2847 53.0795 38.2175 52.9785C38.14 52.8623 38.0604 52.7472 37.9883 52.6274C37.8879 52.4595 37.7929 52.2881 37.6968 52.1172C37.5779 51.9056 37.4598 51.6935 37.3426 51.4811C37.234 51.2848 37.1404 51.078 37.0143 50.8951C36.9079 50.7404 36.8231 50.5752 36.7307 50.4138C36.6981 50.3572 36.6635 50.3014 36.6258 50.2486C36.5291 50.1114 36.4437 49.966 36.3705 49.8139C36.1757 49.4188 35.958 49.0373 35.7291 48.6632C35.466 48.2332 35.194 47.8095 34.9252 47.3837C34.7959 47.1772 34.67 46.9706 34.5333 46.7712C34.387 46.5552 34.2369 46.3424 34.1178 46.1082C34.1046 46.0834 34.0887 46.0602 34.0705 46.0391C33.9219 45.8621 33.7917 45.6667 33.6196 45.5106C33.5899 45.4887 33.5636 45.4623 33.5416 45.4322C33.4565 45.2802 33.317 45.1887 33.1906 45.0831C33.1338 45.0356 33.0734 44.9946 33.0204 44.9418C32.8276 44.755 32.6132 44.5977 32.4016 44.4351C32.2118 44.2899 32.0078 44.1656 31.7931 44.0645C31.6417 43.9931 31.5129 43.8916 31.3799 43.7948C31.3044 43.7422 31.2364 43.6787 31.178 43.6063C31.0714 43.4661 30.9549 43.3348 30.855 43.1876C30.7342 43.0105 30.6424 42.8155 30.5255 42.6367C30.3764 42.4083 30.2987 42.1448 30.1852 41.899C30.1285 41.6508 30.0208 41.4204 29.9558 41.1746C29.9224 41.0477 29.896 40.9176 29.8543 40.794C29.7647 40.5284 29.6904 40.2558 29.5682 40.0023C29.5545 39.9779 29.5456 39.9509 29.5421 39.9229C29.5381 39.8256 29.4981 39.7421 29.4633 39.6547C29.4254 39.569 29.3984 39.4785 29.3827 39.3856C29.3576 39.2083 29.3153 39.0341 29.2565 38.8657C29.2356 38.8034 29.2157 38.7409 29.1947 38.6786C29.1017 38.4033 29.0056 38.1289 28.9163 37.8524C28.8388 37.6114 28.7895 37.3603 28.6775 37.1313C28.6587 37.0882 28.6453 37.0428 28.6375 36.9961C28.6023 36.8191 28.5365 36.6547 28.4674 36.4901C28.4058 36.3426 28.3366 36.1971 28.2989 36.0431C28.2594 35.8884 28.2109 35.7365 28.1534 35.5881C28.0919 35.4309 28.0418 35.2691 28.0034 35.1042C27.9725 34.9664 27.933 34.8309 27.8852 34.6984C27.7947 34.442 27.6867 34.1912 27.6283 33.9236C27.6033 33.8109 27.5225 33.7274 27.4712 33.6285C27.456 33.6048 27.4353 33.5854 27.411 33.5722C27.2247 33.4541 27.06 33.3045 26.8921 33.1614C26.7291 33.0257 26.5521 32.9093 26.3644 32.8144C26.2836 32.7722 26.1996 32.7348 26.1225 32.6858C25.7969 32.4779 25.4264 32.3584 25.0449 32.3382C24.9997 32.3345 24.9547 32.3282 24.9102 32.3193C24.6774 32.2795 24.4407 32.2706 24.2058 32.2927C24.0435 32.3088 23.8804 32.3145 23.7175 32.3099C23.654 32.3062 23.5904 32.3079 23.5272 32.3152C23.3457 32.3394 23.1648 32.3152 22.9839 32.3152C22.803 32.3152 22.6229 32.3411 22.4406 32.3329C22.2052 32.3175 21.969 32.3193 21.7339 32.3382C21.5989 32.3521 21.4637 32.3529 21.3292 32.3842C21.2243 32.4087 21.1123 32.3978 21.0043 32.4105C20.761 32.44 20.5188 32.4772 20.2755 32.5043C20.1586 32.5176 20.0404 32.5185 19.9227 32.5199C19.6959 32.5226 19.469 32.52 19.2421 32.5229C19.2148 32.5223 19.1876 32.5266 19.1616 32.5356C19.0825 32.5651 19.0008 32.5571 18.9064 32.5583C18.8842 32.5543 18.8617 32.5527 18.8392 32.5536C18.7765 32.5601 18.7138 32.5698 18.6515 32.5798C18.6428 32.5822 18.6348 32.5866 18.628 32.5926C18.6213 32.5987 18.6159 32.6063 18.6124 32.6148C18.6089 32.6233 18.6072 32.6326 18.6077 32.6419C18.6081 32.6512 18.6106 32.6602 18.6149 32.6684C18.639 32.7292 18.6631 32.7902 18.6886 32.8504C18.7958 33.1001 18.9129 33.3453 19.0082 33.5996C19.1171 33.89 19.2331 34.175 19.3995 34.4355C19.4081 34.4521 19.4157 34.4693 19.4222 34.4869C19.4738 34.5966 19.5256 34.7065 19.5776 34.8165C19.6343 34.9345 19.6695 35.0623 19.7622 35.1582C19.7736 35.1729 19.7825 35.1896 19.7886 35.2074C19.923 35.5058 20.0605 35.8023 20.2409 36.0746C20.2909 36.1956 20.3538 36.3104 20.4283 36.4169C20.4548 36.4663 20.4769 36.518 20.4944 36.5715C20.5103 36.6153 20.5282 36.6583 20.5483 36.7002C20.644 36.8715 20.7293 37.0489 20.8035 37.2313C20.8303 37.2911 20.8604 37.3492 20.8937 37.4054C20.9807 37.5709 21.0667 37.7368 21.1551 37.9014C21.1854 37.9593 21.22 38.0147 21.2586 38.0669C21.3891 38.2372 21.5138 38.4098 21.5915 38.6152C21.7365 38.8315 21.8575 39.0637 21.9971 39.2832C22.1567 39.5343 22.3424 39.7674 22.4737 40.038C22.4902 40.0715 22.5092 40.1035 22.5305 40.1339C22.7006 40.3782 22.8662 40.6258 23.0015 40.8937C23.0116 40.92 23.0261 40.9443 23.0443 40.9654C23.1685 41.082 23.232 41.2416 23.3154 41.3853C23.3951 41.5228 23.4685 41.6632 23.5587 41.794C23.5845 41.8317 23.5981 41.8783 23.6228 41.9173C23.7274 42.0819 23.8173 42.2549 23.9472 42.4039C24.2396 42.7391 24.5183 43.0867 24.7488 43.4729C25.0426 43.86 25.2233 44.3195 25.4861 44.7258C25.5142 44.7742 25.5397 44.8241 25.5627 44.8754C25.5969 44.9525 25.6359 45.0273 25.6793 45.0993C25.806 45.2858 25.8846 45.4962 25.9779 45.7001C26.0458 45.8438 26.0891 45.9988 26.106 46.158C26.1286 46.3644 26.1783 46.5665 26.2538 46.7588C26.317 46.9255 26.3751 47.094 26.4401 47.2604C26.5252 47.4782 26.6102 47.6956 26.7035 47.9096C26.8116 48.1636 26.9621 48.3843 27.187 48.5437C27.307 48.6289 27.4178 48.7272 27.5177 48.837C27.7026 49.0403 27.9342 49.1674 28.1767 49.2754C28.3673 49.3631 28.5646 49.4339 28.7665 49.4873C28.8371 49.5047 28.9052 49.5315 28.9755 49.5493C29.0283 49.5631 29.0778 49.588 29.121 49.6224C29.3561 49.7995 29.6031 49.96 29.822 50.1592C29.9516 50.2772 30.0817 50.3952 30.2116 50.5132C30.3551 50.6434 30.4932 50.7788 30.6432 50.9013C30.738 50.9736 30.8237 51.058 30.8984 51.1524C30.948 51.22 31.0103 51.2763 31.0816 51.3179C31.2021 51.3869 31.2983 51.489 31.3867 51.5947C31.5725 51.816 31.7911 51.9998 32.0032 52.1904C32.0781 52.2577 32.1717 52.3028 32.2457 52.371C32.3265 52.4454 32.3929 52.5365 32.4686 52.6174C32.5125 52.6646 32.5622 52.7059 32.6104 52.7505C32.7442 52.8773 32.8891 52.9942 33.0074 53.134C33.1472 53.2943 33.2946 53.4471 33.4492 53.592C33.7018 53.8351 33.9596 54.0738 34.1953 54.3344C34.2324 54.3754 34.2738 54.4123 34.3115 54.4524C34.4369 54.5878 34.5778 54.7059 34.6926 54.8531C34.7598 54.939 34.8344 55.0248 34.9479 55.0546C34.9815 55.0685 35.0105 55.0923 35.0312 55.1231C35.1107 55.2267 35.2124 55.3095 35.3281 55.3648C35.3609 55.3813 35.391 55.403 35.4175 55.4291C35.5453 55.5471 35.6778 55.6622 35.7955 55.7944C36.061 56.0918 36.3467 56.369 36.6504 56.6238C36.7922 56.7418 36.934 56.8578 37.0758 56.9755C37.2241 57.0989 37.3923 57.1948 37.5295 57.3344C37.5618 57.3677 37.5988 57.3958 37.6393 57.4176C37.802 57.5037 37.9432 57.6241 38.0884 57.7351C38.205 57.8236 38.3201 57.9162 38.4523 57.9817C38.5009 58.007 38.5464 58.0383 38.5878 58.075C38.7562 58.219 38.9579 58.3137 39.1201 58.4668C39.134 58.4786 39.1494 58.4885 39.1657 58.4963C39.3642 58.5972 39.5301 58.743 39.7008 58.8832C39.886 59.0351 40.0635 59.1974 40.2507 59.3464C40.4092 59.4722 40.5526 59.6175 40.6777 59.779C40.8294 59.9787 40.9914 60.1697 41.1629 60.3511C41.2237 60.4077 41.2805 60.4686 41.3331 60.5335C41.5146 60.784 41.7718 60.9563 41.9604 61.1992C42.156 61.3662 42.3698 61.5099 42.5451 61.7028C42.5732 61.7267 42.6038 61.7471 42.6364 61.7636L43.8725 62.5881C43.9476 62.641 44.0313 62.6796 44.1195 62.7019C44.1896 62.7202 44.2571 62.7483 44.32 62.7854C44.4235 62.8445 44.5238 62.9085 44.6231 62.9746C44.7752 63.077 44.9324 63.1708 45.0941 63.2558C45.4194 63.4237 45.7375 63.6037 46.0137 63.8533C46.0988 63.9297 46.2009 63.9666 46.3072 63.9932C46.3335 64.0015 46.3614 64.0022 46.388 63.9954C46.4146 63.9885 46.4389 63.9743 46.4584 63.9542C46.5285 63.8801 46.5976 63.8051 46.6657 63.7294C46.7019 63.6877 46.7267 63.6368 46.7377 63.5818C46.8341 63.187 46.8393 62.7741 46.753 62.3768C46.7463 62.3287 46.7431 62.2802 46.7434 62.2316Z" fill="#CA3604"/>
<path d="M22.7448 49.5093C22.6683 49.3391 22.5877 49.1706 22.5052 49.0033C22.4102 48.8103 22.3215 48.6117 22.1933 48.4409C22.0591 48.2638 21.9239 48.085 21.7603 47.9334C21.6657 47.8455 21.5814 47.7465 21.509 47.6383C21.4696 47.5751 21.421 47.5186 21.365 47.471C21.1747 47.3208 21.0349 47.1234 20.8829 46.9378C20.7581 46.7864 20.6685 46.6106 20.5545 46.4518C20.5301 46.4124 20.5128 46.3687 20.5035 46.3229C20.4601 46.1594 20.4292 45.9918 20.375 45.8325C20.3441 45.7416 20.3149 45.6537 20.3245 45.5587C20.3415 45.3949 20.3072 45.2403 20.2627 45.0865C20.2344 44.9874 20.206 44.8877 20.1776 44.7885C20.0781 44.4533 19.9185 44.1662 19.5983 44.0078C19.5821 43.9995 19.5699 43.9862 19.5526 43.9783C19.537 43.9686 19.5201 43.9614 19.5025 43.9567C19.2977 43.9128 19.0967 43.8756 18.886 43.9464C18.7039 44.0075 18.525 44.0703 18.3616 44.1751C18.3154 44.2046 18.2658 44.2288 18.2198 44.2592C18.1659 44.2946 18.103 44.3125 18.0392 44.3105C17.7077 44.3073 17.389 44.2497 17.1011 44.0662C17.0161 44.0122 16.931 43.9588 16.8493 43.8986C16.6647 43.7623 16.4688 43.6419 16.2986 43.4855C16.1052 43.389 15.991 43.1975 15.8299 43.0615C15.761 43.0025 15.7139 42.9172 15.6529 42.8475C15.2559 42.394 14.8785 41.9228 14.5107 41.4436C14.4152 41.3177 14.312 41.1982 14.2019 41.086C14.1168 41.001 14.0252 40.9252 13.943 40.8381C13.7904 40.6767 13.6381 40.5135 13.5108 40.3297C13.259 39.9715 12.9759 39.6383 12.6649 39.3345C12.6059 39.2754 12.5478 39.2164 12.4925 39.1536C12.2288 38.855 11.9296 38.5929 11.6829 38.2763C11.6716 38.2619 11.656 38.2513 11.6435 38.2377C11.4674 38.0474 11.2899 37.8588 11.1166 37.6661C10.9181 37.4451 10.7074 37.2403 10.4565 37.0828C10.3389 37.0116 10.2273 36.9302 10.123 36.8393C9.91001 36.6473 9.67493 36.4853 9.44977 36.3118C9.31029 36.2065 9.15956 36.1183 9.00059 36.0492C8.69319 35.9105 8.39516 35.7491 8.08408 35.6186C8.05888 35.6079 8.0346 35.595 8.01148 35.58C7.83988 35.4747 7.662 35.3809 7.47893 35.2991C7.33006 35.2303 7.18033 35.1654 7.02805 35.1052C6.97846 35.0831 6.93154 35.055 6.88825 35.0214C6.85337 34.9966 6.84486 34.9329 6.86216 34.8925C6.90526 34.7892 6.97559 34.7202 7.08618 34.7116C7.19678 34.703 7.30368 34.7024 7.41229 34.7051C7.74804 34.7137 8.08266 34.714 8.41728 34.6706C8.55141 34.6532 8.68866 34.6579 8.82449 34.6532C8.87888 34.655 8.93332 34.6535 8.98754 34.6487C9.19484 34.6166 9.40355 34.6192 9.61141 34.6151C9.92865 34.6127 10.2455 34.593 10.5608 34.5561C10.7769 34.5315 10.9906 34.4879 11.1997 34.426C11.382 34.3699 11.5666 34.3218 11.7484 34.264C11.8875 34.2223 12.0243 34.173 12.1585 34.1164C12.4086 34.0055 12.6539 33.8833 12.902 33.768C13.1 33.6743 13.3031 33.5929 13.5103 33.5242C13.7938 33.4322 14.0862 33.3534 14.3437 33.187C14.3672 33.1729 14.3917 33.1606 14.4168 33.1501C14.7824 32.9849 15.1487 32.8214 15.5134 32.6541C15.745 32.546 15.9829 32.4535 16.2258 32.377C16.272 32.3628 16.3318 32.362 16.361 32.3062C16.3488 32.292 16.3395 32.2705 16.3247 32.2655C16.1367 32.1976 15.9507 32.1212 15.7576 32.0698C15.6086 32.0301 15.4645 31.9723 15.3285 31.8975C15.1842 31.8181 15.045 31.7305 14.8913 31.6691C14.8414 31.6463 14.794 31.6183 14.7495 31.5856C14.4205 31.3679 14.092 31.1497 13.7638 30.9312C13.5721 30.8057 13.3732 30.6924 13.1683 30.5921C12.866 30.4405 12.5691 30.2788 12.2798 30.1014C12.0843 29.9802 11.8798 29.8755 11.6682 29.7884C11.5082 29.7234 11.3438 29.6671 11.1954 29.5741C11.1086 29.5234 11.0183 29.4796 10.9252 29.4428C10.7008 29.3422 10.4709 29.2553 10.2367 29.1826C10.1935 29.1689 10.1511 29.1526 10.1096 29.1339C9.90093 29.0433 9.67351 29.0094 9.46934 28.9029C9.42283 28.8787 9.363 28.8834 9.30968 28.8734C9.15854 28.8438 9.00172 28.8371 8.85795 28.7751C8.73913 28.7238 8.61266 28.7093 8.48931 28.6807C8.3564 28.6474 8.2179 28.6466 8.08465 28.6783C8.02273 28.6933 7.95977 28.7032 7.89635 28.7078C7.71533 28.7251 7.53808 28.7721 7.37117 28.8471C7.20302 28.9185 7.03854 28.9973 6.85422 29.0106C6.4989 29.1227 6.1365 29.2112 5.7928 29.3608C5.65102 29.4228 5.50725 29.4788 5.35383 29.5036C5.2196 29.5274 5.08922 29.5706 4.96647 29.632C4.76022 29.7293 4.55311 29.8245 4.34516 29.9173C3.94532 30.0943 3.53669 30.2507 3.14309 30.444C3.02774 30.4991 2.9087 30.5455 2.78692 30.5827C2.42253 30.6981 2.0658 30.8347 1.70935 30.976C1.37945 31.1094 1.06757 31.2868 0.781493 31.5036C0.708047 31.5585 0.64396 31.6269 0.569663 31.6806C0.458377 31.7641 0.356748 31.8606 0.266807 31.9683C0.248658 32.0492 0.227106 32.1312 0.211794 32.2144C0.138915 32.6131 0.0983642 33.0164 0.0464702 33.4183C0.0260529 33.5774 0.0147099 33.7376 0.00308339 33.8975C-0.0010278 33.9633 -0.0010278 34.0294 0.00308339 34.0952C0.0155606 34.3495 0.0292667 34.6038 0.0442016 34.858C0.046318 34.9428 0.0558092 35.0272 0.0725589 35.1102C0.116513 35.2932 0.164153 35.4755 0.221719 35.6538C0.26227 35.7789 0.309626 35.901 0.331745 36.0317C0.348837 36.1249 0.389902 36.2115 0.450562 36.2823C0.556335 36.4115 0.665795 36.5378 0.76618 36.6715C0.93122 36.891 1.1422 37.055 1.36565 37.199C1.55735 37.3236 1.76606 37.418 1.97364 37.5115C2.20806 37.6123 2.43193 37.7379 2.64173 37.8862C2.90858 38.0813 3.17882 38.2716 3.46949 38.4286C3.54151 38.4675 3.60844 38.5171 3.67735 38.5628C3.78425 38.634 3.88974 38.7068 3.99722 38.7774C4.21216 38.9187 4.42258 39.0724 4.60265 39.256C4.88253 39.5425 5.20524 39.7697 5.52001 40.0075C5.70263 40.1459 5.89574 40.2704 6.07893 40.4094C6.22525 40.5206 6.37356 40.6298 6.52102 40.7393C6.63739 40.8299 6.76166 40.9089 6.89222 40.9753C6.97291 41.0186 7.04896 41.0706 7.11908 41.1305C7.25661 41.2377 7.38961 41.3513 7.52912 41.4551C7.7194 41.597 7.89493 41.7632 8.11357 41.8614C8.30271 42.009 8.5066 42.1311 8.70907 42.2577C8.78649 42.3061 8.85568 42.3698 8.93593 42.4138C9.20845 42.5643 9.46026 42.749 9.72086 42.9193C9.86662 43.0146 10.0044 43.1258 10.1596 43.2025C10.4431 43.3465 10.7267 43.4976 11.0012 43.6587C11.2002 43.7711 11.3913 43.8982 11.5729 44.039C11.7028 44.1422 11.8466 44.225 11.9997 44.2845C12.1782 44.3545 12.3492 44.4435 12.5101 44.5501C12.5784 44.5961 12.6505 44.6366 12.7222 44.6767C13.0012 44.8328 13.2831 44.9833 13.5446 45.1715C13.5889 45.2044 13.6364 45.2324 13.6864 45.255C13.9248 45.3598 14.1208 45.5294 14.3011 45.7147C14.457 45.8725 14.6237 46.0183 14.8 46.1509C14.967 46.2789 15.1377 46.4028 15.288 46.5527C15.4449 46.7098 15.6146 46.8524 15.7953 46.9788C16.0814 47.1786 16.3664 47.3804 16.6585 47.569C17.1201 47.8687 17.5818 48.1677 18.0032 48.5285C18.0815 48.5927 18.1648 48.65 18.2522 48.7C18.527 48.8652 18.804 49.026 19.0794 49.1898C19.1502 49.2317 19.2175 49.2801 19.2886 49.3214C19.4945 49.4394 19.6817 49.5928 19.9048 49.6799C19.9548 49.7021 20.0014 49.7319 20.0429 49.7684C20.2514 49.9363 20.4779 50.0753 20.7022 50.2184C20.8412 50.3069 20.9765 50.4022 21.1131 50.4952C21.2195 50.5672 21.3267 50.6377 21.4313 50.7123C21.5955 50.8304 21.7674 50.9387 21.9182 51.0732C22.0424 51.1842 22.1734 51.2833 22.303 51.3866C22.3618 51.4297 22.4231 51.4691 22.4865 51.5046C22.556 51.5474 22.622 51.5379 22.6918 51.4972C22.8336 51.4143 22.9348 51.3025 22.9691 51.1322C22.9783 51.0957 22.9896 51.0599 23.0029 51.0248C23.1075 50.6979 23.0854 50.3718 22.9774 50.0534C22.9116 49.867 22.8254 49.6887 22.7448 49.5093Z" fill="#CA3604"/>
<path d="M0.807295 29.0311C0.97328 29.2671 1.14342 29.4997 1.31773 29.7286C1.40298 29.8389 1.49465 29.9437 1.59223 30.0423C1.68096 30.1386 1.78482 30.2184 1.89934 30.2783C1.93507 30.2665 1.96938 30.2565 2.00284 30.2438C2.1554 30.1848 2.30825 30.1276 2.46422 30.0789C2.58559 30.0408 2.70837 30.0063 2.82549 29.957C3.05235 29.862 3.28091 29.7711 3.51372 29.6932C3.67919 29.642 3.83592 29.5642 3.97821 29.4625C4.00639 29.4387 4.03784 29.4194 4.07151 29.4052C4.22039 29.3557 4.34856 29.2663 4.48099 29.1848C4.58356 29.124 4.6925 29.0757 4.80568 29.0408C5.08217 28.9502 5.35893 28.8599 5.63599 28.772C5.80046 28.7198 5.96663 28.6758 6.13564 28.6395C6.41922 28.5787 6.6991 28.4955 6.95517 28.348C7.0586 28.2888 7.16995 28.246 7.28553 28.2211C7.45297 28.1786 7.62386 28.1525 7.79596 28.1432C7.94087 28.1394 8.08578 28.1296 8.23097 28.1267C8.38518 28.1222 8.53933 28.1378 8.68979 28.1733C8.82193 28.2052 8.9572 28.2241 9.09105 28.2477C9.20731 28.268 9.32386 28.2851 9.43984 28.3067C9.54646 28.3273 9.65366 28.348 9.75829 28.3775C9.95056 28.4318 10.1414 28.4923 10.3325 28.5513C10.3492 28.5587 10.3655 28.5669 10.3813 28.5761C10.4647 28.6127 10.5481 28.6488 10.6317 28.6844C10.7908 28.7519 10.9473 28.8284 11.1101 28.8847C11.2902 28.9467 11.4532 29.0547 11.6415 29.0933C11.6767 29.1021 11.7096 29.1187 11.7379 29.142C11.8695 29.2468 12.0215 29.3052 12.1769 29.3568C12.3076 29.3968 12.4329 29.4538 12.5498 29.5265C12.6499 29.592 12.7639 29.6289 12.868 29.685C12.9797 29.744 13.0787 29.8325 13.1878 29.898C13.3056 29.9685 13.4277 30.0308 13.5534 30.0845C13.7717 30.1765 13.9834 30.285 14.1866 30.4091C14.3493 30.5117 14.5101 30.6174 14.6746 30.7171C15.1044 30.9802 15.5573 31.1999 16.0273 31.3733C16.1211 31.4076 16.2116 31.4518 16.3029 31.4937C16.5519 31.6073 16.7997 31.7233 17.049 31.8354C17.1157 31.865 17.1843 31.8896 17.2543 31.9092C17.5095 31.9812 17.7647 32.0455 18.0293 32.0467C18.3384 32.0467 18.6441 32.003 18.9509 31.9741C19.0584 31.9638 19.1656 31.9446 19.2742 31.9378C19.4188 31.9328 19.5631 31.9194 19.7063 31.8977C19.8228 31.8785 19.9404 31.8673 20.0583 31.864C20.2122 31.8578 20.3668 31.8658 20.5205 31.8573C20.6742 31.8487 20.8262 31.8372 20.9787 31.8277C21.1151 31.8201 21.2512 31.8159 21.3831 31.7802C21.5955 31.723 21.8116 31.7124 22.0291 31.7077C22.1649 31.7047 22.3008 31.6959 22.4366 31.6873C22.5903 31.6738 22.7448 31.6766 22.898 31.6959C23.0328 31.7157 23.1694 31.72 23.3052 31.7088C23.3866 31.702 23.4682 31.7032 23.5499 31.7035C23.8856 31.7035 24.2211 31.7109 24.5566 31.7085C24.8378 31.7111 25.1185 31.7354 25.3962 31.7811C25.7011 31.8269 25.9951 31.9257 26.2841 32.0414C26.5731 32.157 26.8269 32.3415 27.0974 32.4934C27.1283 32.513 27.1568 32.5362 27.1825 32.5628C27.3501 32.7218 27.5296 32.8658 27.7091 33.0101C27.8404 33.1108 27.9787 33.2012 28.1228 33.2807C28.1699 33.309 28.2213 33.329 28.2748 33.3397C28.4353 33.3692 28.5949 33.404 28.76 33.3987C29.0861 33.3875 29.4122 33.3786 29.7386 33.3745C29.9471 33.3706 30.1549 33.3477 30.3596 33.3063C30.5391 33.2712 30.7064 33.1998 30.8806 33.1491C31.0663 33.0954 31.2319 32.9939 31.3879 32.8835C31.5061 32.7988 31.6042 32.6832 31.7086 32.5784C31.7336 32.5512 31.7534 32.5193 31.7667 32.4843C31.8325 32.3261 31.9352 32.1942 32.0364 32.0609C32.0655 32.0249 32.0926 31.9871 32.1175 31.9478C32.2411 31.7395 32.3597 31.5283 32.4861 31.3217C32.5642 31.1945 32.6314 31.0606 32.6872 30.9213C32.784 30.6988 32.9024 30.4872 33.0405 30.2898C33.0764 30.2357 33.109 30.1792 33.1381 30.1208C33.2515 29.9051 33.3122 29.6664 33.3993 29.4389C33.4256 29.379 33.4481 29.3174 33.4665 29.2544C33.5561 28.8794 33.657 28.5067 33.6766 28.1173C33.6846 28.0519 33.6966 27.9871 33.7126 27.9234C33.7435 27.7463 33.7931 27.5746 33.7838 27.3923C33.7805 27.3545 33.7847 27.3165 33.796 27.2804C33.8453 27.1441 33.8388 27.0022 33.8419 26.8611C33.8398 26.7951 33.8428 26.729 33.8507 26.6634C33.8986 26.402 33.8941 26.1376 33.8964 25.8735C33.8951 25.8076 33.8973 25.7416 33.9032 25.6758C33.9298 25.4495 33.8947 25.2235 33.906 24.9972C33.9056 24.9498 33.896 24.903 33.8776 24.8597C33.847 24.7707 33.832 24.6768 33.8331 24.5823C33.8314 24.5072 33.8241 24.4323 33.8113 24.3584C33.7781 24.1539 33.7222 23.9538 33.6845 23.7505C33.6306 23.4634 33.5503 23.1824 33.4446 22.9113C33.3539 22.6753 33.2745 22.4354 33.1809 22.2005C33.1295 22.0696 33.0691 21.9427 33.0003 21.8208C32.8284 21.5183 32.6075 21.2554 32.3875 20.9919C32.322 20.9137 32.2593 20.8332 32.1949 20.7541C32.0072 20.5236 31.8263 20.2864 31.6068 20.0872C31.4772 19.9692 31.3442 19.8559 31.2322 19.7184C31.1883 19.6709 31.1409 19.6271 31.0904 19.5874C31.0147 19.5201 30.935 19.457 30.8635 19.3856C30.6268 19.1495 30.371 18.9397 30.1217 18.7205C29.9626 18.5806 29.8072 18.4351 29.6606 18.2814C29.5775 18.1929 29.4967 18.1061 29.4054 18.0268C29.2515 17.8945 29.114 17.7428 28.9959 17.5753C28.9276 17.4756 28.8507 17.382 28.7781 17.2855C28.6891 17.1675 28.5918 17.0533 28.5133 16.9276C28.3803 16.714 28.2507 16.4968 28.135 16.2726C27.9878 15.9878 27.7964 15.7373 27.6056 15.4856C27.5516 15.4221 27.492 15.364 27.4278 15.3118C27.4176 15.3027 27.3954 15.3074 27.3736 15.3053C27.3276 15.3964 27.2907 15.4921 27.2633 15.591C27.2477 15.6447 27.2349 15.7001 27.2151 15.7524C27.1649 15.884 27.113 16.0144 27.0991 16.1575C27.0965 16.1857 27.0893 16.2132 27.0778 16.2389C27.0123 16.3838 26.9548 16.534 26.8754 16.6703C26.8002 16.7987 26.7619 16.9474 26.6641 17.0625C26.5682 17.2755 26.4574 17.48 26.3437 17.6821C26.3191 17.7217 26.2979 17.7635 26.2804 17.8069C26.2192 17.9763 26.1228 18.1244 26.0252 18.2717C26.0045 18.3012 25.9824 18.3325 25.9625 18.364C25.9474 18.3878 25.9401 18.4161 25.942 18.4446C25.9438 18.4731 25.9546 18.5002 25.9727 18.5216C26.0207 18.59 26.0675 18.6594 26.1162 18.7281C26.1363 18.7594 26.1601 18.7878 26.1871 18.8128C26.3901 18.9862 26.575 19.1813 26.7387 19.395C26.7625 19.4231 26.7899 19.4477 26.8201 19.4682C26.9312 19.549 27.0447 19.6266 27.1547 19.709C27.2709 19.7975 27.396 19.8686 27.495 19.9825C27.5602 20.0571 27.656 20.1029 27.7388 20.1595C27.7763 20.1858 27.8239 20.2026 27.8523 20.2368C27.9192 20.3177 28.0133 20.3584 28.0896 20.4242C28.173 20.4962 28.2571 20.5671 28.342 20.6369C28.3844 20.6722 28.4288 20.7047 28.475 20.7343C28.5846 20.8007 28.6854 20.8817 28.7747 20.9754C28.8436 21.0506 28.9174 21.1207 28.9956 21.1852C29.1471 21.3088 29.2588 21.4693 29.3853 21.6169C29.5628 21.8234 29.6887 22.0595 29.8004 22.3085C29.9422 22.6248 30.0349 22.9618 30.1753 23.279C30.1829 23.306 30.1884 23.3337 30.1918 23.3616C30.2289 23.5073 30.2752 23.6504 30.3304 23.7898C30.4264 24.0244 30.4931 24.2708 30.5289 24.523C30.5513 24.6912 30.5825 24.8579 30.6052 25.0246C30.6167 25.0992 30.6206 25.1749 30.6171 25.2504C30.5936 25.6275 30.6063 26.0046 30.6103 26.3819C30.6134 26.7222 30.5905 27.0606 30.4912 27.3884C30.4823 27.4152 30.4758 27.4427 30.4719 27.4708C30.4458 27.6885 30.3679 27.8909 30.2916 28.0922C30.2315 28.2397 30.1623 28.3832 30.0846 28.5215C30.0164 28.6448 29.9199 28.7486 29.8038 28.8236C29.6367 28.9372 29.4594 29.0336 29.2744 29.1116C29.1918 29.1514 29.1065 29.1848 29.0192 29.2114C28.7367 29.2856 28.4416 29.2909 28.1568 29.2267C27.8477 29.1559 27.5497 29.0376 27.2327 29.0025C27.2145 29.0008 27.1968 28.9953 27.1808 28.9862C27.1241 28.9523 27.0602 28.9502 26.9984 28.9364C26.7432 28.8773 26.4815 28.8387 26.2282 28.7661C26.0357 28.7116 25.8378 28.6803 25.6384 28.6729C25.293 28.6587 24.9519 28.6109 24.6096 28.5699C24.3759 28.5404 24.1423 28.5062 23.9052 28.5292C23.8418 28.5345 23.7781 28.5312 23.7155 28.5194C23.5541 28.4938 23.3907 28.4829 23.2275 28.487C22.9283 28.4887 22.6291 28.4991 22.33 28.4997C22.1817 28.4997 22.0478 28.5678 21.9046 28.5858C21.7614 28.6038 21.6151 28.5787 21.4719 28.6153C21.4194 28.6301 21.3658 28.64 21.3116 28.6448C21.1936 28.6526 21.0789 28.6893 20.977 28.7519C20.8986 28.7991 20.8099 28.8247 20.7193 28.8263C20.6739 28.8271 20.6286 28.8319 20.584 28.8408C20.2236 28.9219 19.8626 28.8945 19.501 28.8532C19.4199 28.8437 19.3388 28.8369 19.2574 28.829C19.2036 28.8234 19.1491 28.8198 19.0955 28.8113C18.9971 28.795 18.8993 28.7758 18.8015 28.7573C18.6597 28.7307 18.5131 28.7171 18.3761 28.674C18.0118 28.5593 17.6421 28.4643 17.2685 28.3893C17.1261 28.3606 16.9868 28.3175 16.8525 28.2607C16.6171 28.1624 16.3814 28.0644 16.1486 27.9591C16.04 27.9118 15.9361 27.8536 15.8384 27.7853C15.5934 27.6083 15.3336 27.4536 15.0881 27.2769C14.8876 27.132 14.7038 26.9618 14.4863 26.8423C14.4712 26.8318 14.4571 26.8197 14.4443 26.8063C14.1911 26.5926 13.9385 26.3781 13.6847 26.1654C13.6433 26.1303 13.5994 26.0985 13.5534 26.0704C13.3325 25.9388 13.0957 25.8426 12.8631 25.7372C12.8376 25.7277 12.8113 25.7203 12.7846 25.7151C12.6794 25.6856 12.5745 25.6561 12.4687 25.6316C12.3991 25.611 12.3279 25.5965 12.256 25.5882C11.9942 25.568 11.734 25.5291 11.4773 25.4717C11.3798 25.4507 11.2808 25.438 11.1821 25.423C10.985 25.3935 10.7851 25.3882 10.5911 25.3303C10.5468 25.3207 10.5017 25.3147 10.4565 25.3123C10.0955 25.2651 9.7322 25.274 9.3698 25.2666C9.06184 25.2604 8.75218 25.2589 8.44535 25.2843C8.18106 25.3064 7.92045 25.2843 7.65815 25.2748C7.59463 25.2722 7.53139 25.2598 7.46815 25.2616C7.21483 25.269 6.9616 25.2789 6.70846 25.2911C6.60893 25.2961 6.50996 25.3091 6.41071 25.3206C6.31146 25.3321 6.21221 25.343 6.11466 25.3625C5.78514 25.4277 5.45677 25.4988 5.12697 25.5634C4.9411 25.6052 4.7532 25.6366 4.56408 25.6573C4.4285 25.665 4.29511 25.6961 4.16934 25.7493C4.02756 25.8133 3.87471 25.8417 3.72583 25.8827C3.56817 25.9261 3.42581 26.0158 3.26304 26.0453C3.13871 26.0729 3.01936 26.1208 2.90943 26.1872C2.69391 26.3074 2.47707 26.4248 2.25891 26.5395C2.01617 26.6679 1.78137 26.8098 1.54997 26.9606C1.43362 27.0339 1.32687 27.1226 1.23237 27.2244C1.12487 27.3397 1.00376 27.4405 0.87195 27.5242C0.833668 27.5495 0.794818 27.574 0.756252 27.5988C0.599152 27.6997 0.529393 27.8644 0.472679 28.034C0.463866 28.0708 0.463866 28.1092 0.472679 28.1459C0.523155 28.4645 0.621838 28.767 0.807295 29.0311Z" fill="#CA3604"/>
<path d="M17.0498 6.05089C17.3508 6.11869 17.6481 6.203 17.9405 6.30347C18.2213 6.3973 18.3943 6.60532 18.5301 6.85672C18.5617 6.91413 18.5845 6.97636 18.5976 7.04114C18.6624 7.36521 18.6734 7.69843 18.6302 8.02638C18.5701 8.45187 18.4127 8.84224 18.1955 9.20665C18.1613 9.26246 18.1223 9.3149 18.0789 9.36334C18.0194 9.43528 17.9403 9.48672 17.8521 9.51087C17.6847 9.55218 17.5177 9.60146 17.3476 9.62241C17.1767 9.64274 17.0086 9.68333 16.8465 9.74339C16.6936 9.80291 16.5356 9.84717 16.3746 9.87558C16.1776 9.90715 15.9802 9.93459 15.7837 9.97088C15.7329 9.98442 15.6835 10.0028 15.6359 10.0258C15.6317 10.0651 15.6394 10.1049 15.6579 10.1395C15.6764 10.1742 15.7048 10.2019 15.7392 10.219C15.8579 10.2877 15.9803 10.3494 16.1058 10.4038C16.1818 10.4342 16.2613 10.454 16.3423 10.4628C16.4498 10.4766 16.5601 10.469 16.6673 10.4846C16.9645 10.528 17.2628 10.5336 17.5622 10.5365C17.8699 10.5398 18.177 10.5784 18.485 10.5908C18.7257 10.6451 18.9716 10.641 19.2155 10.6613C19.3602 10.6727 19.5056 10.6704 19.6499 10.6546C19.9484 10.6262 20.2492 10.649 20.5406 10.7218C20.646 10.7507 20.7544 10.7659 20.8633 10.767C20.9921 10.7637 21.1149 10.7965 21.2408 10.8039C21.376 10.8112 21.513 10.7991 21.642 10.8573C21.6597 10.8621 21.678 10.8636 21.6962 10.8617C21.8411 10.8661 21.986 10.8697 22.1312 10.8747C22.1854 10.8737 22.2396 10.8779 22.2931 10.8874C22.6408 10.9688 22.9955 10.9482 23.3474 10.97C23.3742 10.9705 23.401 10.9681 23.4274 10.9629C23.6338 10.9304 23.8427 10.919 24.0513 10.929C24.0965 10.9316 24.142 10.9305 24.1871 10.9257C24.387 10.9033 24.5861 10.9204 24.7843 10.9428C24.9104 10.9582 25.0378 10.9576 25.1637 10.9411C25.2266 10.933 25.2901 10.93 25.3534 10.9322C25.6432 10.9402 25.933 10.9505 26.2229 10.9588C26.2396 10.9565 26.2557 10.9504 26.2699 10.9408C26.2847 10.9334 26.2699 10.8891 26.2416 10.8679C26.1537 10.8015 26.0683 10.7304 25.9753 10.6723C25.7266 10.5171 25.4751 10.3672 25.2235 10.217C25.1757 10.1901 25.126 10.1669 25.075 10.1473C24.8229 10.0423 24.5549 9.98328 24.3093 9.85994C24.3006 9.85708 24.2917 9.85501 24.2826 9.85374C24.0198 9.78351 23.7722 9.66431 23.5054 9.60293C23.4791 9.59535 23.4537 9.58477 23.4297 9.57136C23.1356 9.42383 22.8373 9.28691 22.5568 9.11282C22.4695 9.06269 22.3901 8.99901 22.3212 8.92398C22.1768 8.75431 22.0475 8.57255 21.9647 8.35862C21.8925 8.16538 21.8356 7.96634 21.7946 7.76347C21.7548 7.56967 21.7424 7.37086 21.7577 7.17333C21.7725 6.93599 21.8671 6.71162 22.0248 6.53952C22.1666 6.37694 22.3339 6.35481 22.52 6.41294C22.589 6.43598 22.6536 6.47143 22.7108 6.51769C22.8296 6.60608 22.924 6.72531 22.9847 6.86351C23.0454 7.01104 23.1072 7.15858 23.1625 7.30611C23.2178 7.45365 23.2632 7.60915 23.3174 7.75904C23.337 7.82163 23.3657 7.88074 23.4024 7.93431C23.4875 8.04467 23.5788 8.14972 23.673 8.25151C23.7095 8.29349 23.7549 8.32603 23.8057 8.34653C24.0286 8.42383 24.2498 8.5156 24.4936 8.48462C24.5563 8.47695 24.6207 8.48462 24.6836 8.47695C24.8677 8.45806 25.0214 8.52416 25.1561 8.64956C25.2978 8.78175 25.4442 8.90804 25.5463 9.07948C25.5746 9.12728 25.6169 9.16564 25.6489 9.21138C25.849 9.50583 26.1204 9.73997 26.4355 9.89003C26.5179 9.92926 26.5977 9.97422 26.6743 10.0246C26.7625 10.0821 26.8657 10.0786 26.9604 10.1093C27.1243 10.1624 27.2948 10.194 27.4632 10.2305C27.5075 10.2412 27.5533 10.2428 27.5982 10.2353C27.7933 10.196 27.9935 10.1804 28.1764 10.0877C28.3956 9.97472 28.6193 9.87115 28.8377 9.75696C29.0556 9.63679 29.3064 9.59775 29.5486 9.64631C29.638 9.66206 29.7283 9.67192 29.8189 9.67581C29.9097 9.68246 30.0009 9.67176 30.088 9.64424C30.4282 9.533 30.745 9.37868 31.0022 9.10958C31.144 8.96204 31.2764 8.80801 31.3708 8.6233C31.4097 8.54865 31.4494 8.47577 31.4885 8.40023C31.5789 8.2245 31.6193 8.02565 31.6051 7.82691C31.5983 7.69118 31.5685 7.56754 31.484 7.45955C31.4443 7.40806 31.4092 7.35295 31.3791 7.2949C31.32 7.18806 31.2356 7.09868 31.1341 7.03524C30.9356 6.90364 30.7371 6.77351 30.5162 6.68116C30.2813 6.57724 30.0744 6.41517 29.9136 6.20904C29.6583 5.89362 29.4726 5.53924 29.3875 5.13558C29.3094 4.78602 29.1874 4.4487 29.0246 4.13235C28.9579 3.99839 28.8876 3.86501 28.7861 3.75525C28.6037 3.55726 28.4095 3.37166 28.1812 3.23327C28.0094 3.12793 27.8364 3.0223 27.6492 2.95C27.4198 2.86148 27.1862 2.78595 26.9548 2.70333C26.8174 2.65415 26.6758 2.61907 26.532 2.59858C26.3706 2.57556 26.2107 2.53956 26.0499 2.51773C25.8794 2.49252 25.7121 2.44739 25.5514 2.38318C25.4243 2.3339 25.2936 2.29465 25.1637 2.25335C25.0767 2.22663 24.9933 2.18845 24.9156 2.13974C24.7988 2.06702 24.6889 1.98283 24.5875 1.88834C24.4275 1.7346 24.2794 1.56796 24.1445 1.38997C23.9932 1.18956 23.8248 1.0037 23.6415 0.834652C23.3834 0.595782 23.0843 0.409776 22.7599 0.286413C22.6317 0.238907 22.5046 0.188155 22.3751 0.145665C22.0348 0.0341286 21.6888 -0.0328521 21.3304 0.0164245C21.1149 0.0459314 20.8988 0.0754383 20.6852 0.117633C20.5336 0.143725 20.3871 0.19535 20.2514 0.270479C20.1413 0.334804 20.0217 0.382015 19.9065 0.437193C19.7914 0.492371 19.6729 0.541648 19.5629 0.606268C19.4353 0.678074 19.3135 0.760573 19.1987 0.852946C19.035 0.989144 18.9067 1.16586 18.8256 1.36696C18.7209 1.62337 18.5721 1.84349 18.3381 1.99221C18.2221 2.06598 18.1112 2.14889 17.9947 2.22059C17.7763 2.35514 17.541 2.4832 17.3212 2.61658C17.258 2.65351 17.1981 2.69627 17.1423 2.74434C17.0711 2.80808 17.0288 2.85234 17.0416 2.94912C17.064 3.1359 17.2685 3.34658 17.2994 3.38051C17.4301 3.52273 17.4826 3.5965 17.1859 3.70509C17.0337 3.76026 17.0011 3.94557 17.0558 4.11641C16.9616 4.19225 16.7773 4.34303 16.912 4.54397C16.9324 4.57348 16.994 4.72101 16.9324 4.79596C16.88 4.86058 16.7838 4.97772 16.7243 5.03555C16.466 5.28666 16.5482 5.62363 16.6959 5.85526C16.7697 5.97358 16.9704 6.03525 17.0498 6.05089Z" fill="#CA3604"/>
<path d="M12.2163 11.1458C12.2961 11.3676 12.4319 11.5629 12.6094 11.7111C12.7897 11.8687 12.9808 12.013 13.1629 12.1682C13.4346 12.3998 13.7499 12.5409 14.0791 12.6506C14.1727 12.6819 14.2776 12.6766 14.3738 12.6996C14.5161 12.7307 14.6614 12.7445 14.8068 12.7406C14.8792 12.7381 14.9518 12.7443 15.0229 12.7592C15.1295 12.7815 15.2382 12.7914 15.347 12.7887C15.5463 12.7873 15.7453 12.8018 15.9425 12.8321C16.1214 12.8616 16.3021 12.882 16.4813 12.8997C16.9327 12.9439 17.3845 12.9844 17.8359 13.0272C17.8811 13.0317 17.9259 13.0389 17.9703 13.0487C18.2011 13.1 18.432 13.1484 18.6705 13.1151C18.6885 13.1136 18.7066 13.1136 18.7246 13.1151C18.9606 13.1213 19.1962 13.1254 19.4319 13.1346C19.6219 13.1419 19.813 13.1298 20.0016 13.1697C20.0562 13.1771 20.1113 13.1791 20.1663 13.1759C20.2298 13.1759 20.2934 13.1759 20.3569 13.1759C20.6285 13.1815 20.8988 13.2234 21.1713 13.2139C21.2165 13.2164 21.2616 13.2222 21.306 13.2313C21.5757 13.2623 21.8448 13.3107 22.1173 13.2992C22.307 13.2915 22.4979 13.303 22.6881 13.3069C22.7514 13.3069 22.8149 13.3151 22.8784 13.3148C23.1504 13.3164 23.4219 13.3404 23.6903 13.3865C23.8514 13.4119 24.0119 13.4426 24.1724 13.4683C24.4588 13.514 24.7489 13.5273 25.0353 13.5807C25.2409 13.615 25.4444 13.6621 25.6447 13.7217C25.922 13.8103 26.1968 13.9056 26.4713 14.0029C26.5567 14.0343 26.6394 14.0728 26.7188 14.118C26.9026 14.2198 27.0813 14.3322 27.267 14.4305C27.5823 14.5978 27.8801 14.7958 28.1812 14.9885C28.2737 15.0475 28.3701 15.1018 28.4566 15.1694C28.611 15.2855 28.7596 15.4095 28.9021 15.5411C29.1573 15.7843 29.4326 15.9988 29.6989 16.226C29.8591 16.3629 30.0131 16.509 30.1858 16.6299C30.3361 16.735 30.4875 16.8389 30.637 16.9451C30.7643 17.0354 30.8854 17.1354 31.017 17.2183C31.1588 17.3068 31.2577 17.4473 31.3972 17.5358C31.5526 17.7161 31.7605 17.8164 31.961 17.9232C32.2931 18.0965 32.6395 18.2383 32.996 18.347C33.2303 18.4204 33.448 18.5441 33.6916 18.586C33.8422 18.678 34.0135 18.7114 34.1763 18.7677C34.3388 18.8257 34.504 18.8749 34.6714 18.9153C34.9896 18.9881 35.3091 19.0572 35.6304 19.113C35.8006 19.1425 35.9724 19.1546 36.1386 19.2015C36.253 19.2307 36.3693 19.2512 36.4865 19.2629C36.7111 19.2906 36.932 19.3487 37.1597 19.3546C37.2138 19.3607 37.2673 19.3712 37.3197 19.3862C37.3635 19.3985 37.4083 19.4064 37.4535 19.4098C37.6563 19.4098 37.8466 19.4688 38.0368 19.532C38.1235 19.5587 38.212 19.5792 38.3014 19.593C38.4795 19.6258 38.6584 19.6547 38.8371 19.6848C39.098 19.7288 39.3447 19.8258 39.5971 19.9008C39.6929 19.9303 39.789 19.958 39.8823 19.9943C39.9756 20.0306 40.0638 20.0764 40.1597 20.1082C40.2618 20.1422 40.3548 20.2053 40.4515 20.2558C40.5649 20.3148 40.6783 20.3738 40.8045 20.3995C40.857 20.4138 40.9068 20.4368 40.9523 20.4676C41.1188 20.5634 41.2905 20.6489 41.4667 20.7237C41.6844 20.8173 41.8969 20.9237 42.103 21.0424C42.3704 21.2023 42.6494 21.3375 42.9211 21.4886C43.0487 21.5594 43.1741 21.6346 43.2974 21.7143C43.4049 21.7839 43.5044 21.8677 43.6133 21.9347C43.8855 22.1029 44.1478 22.2888 44.4184 22.4582C44.6736 22.619 44.9158 22.8046 45.1937 22.9258C45.242 22.9509 45.2885 22.9798 45.3326 23.0123C45.5256 23.135 45.7188 23.2578 45.9122 23.3805C45.9419 23.4022 45.9742 23.4196 46.0084 23.4322C46.1502 23.4732 46.2721 23.5555 46.3966 23.6334C46.4431 23.6627 46.4915 23.6885 46.5415 23.7107C46.7901 23.824 47.0459 23.9194 47.3071 23.9961C47.3582 24.0105 47.4115 24.0288 47.4832 24.0043C47.4163 23.9288 47.3585 23.8695 47.3071 23.8043C47.2591 23.7479 47.2174 23.686 47.1829 23.6198C47.0471 23.3322 46.8951 23.0524 46.7964 22.7467C46.759 22.6308 46.715 22.5169 46.6748 22.4015C46.6441 22.3126 46.5969 22.2309 46.5358 22.161C46.3274 21.9217 46.1054 21.7025 45.8138 21.573C45.7146 21.5268 45.6177 21.4753 45.5235 21.4189C45.4934 21.3986 45.4669 21.3731 45.4449 21.3437C45.4166 21.3106 45.4472 21.236 45.4883 21.2316C45.524 21.2259 45.56 21.2231 45.5961 21.2233C45.6956 21.2289 45.7946 21.2413 45.8947 21.2445C46.0848 21.2555 46.2754 21.2349 46.4593 21.1835C46.7122 21.1073 46.9697 21.0513 47.2368 21.0713C47.4353 21.0861 47.6358 21.0973 47.8323 21.1303C48.0575 21.1699 48.284 21.1702 48.5101 21.1841C48.546 21.1851 48.5818 21.18 48.6161 21.169C48.6263 21.166 48.6382 21.1342 48.6337 21.1215C48.6257 21.0949 48.6104 21.0713 48.5897 21.0536C48.4692 20.9698 48.3411 20.8984 48.2072 20.8406C48.0501 20.7677 47.8967 20.6863 47.7416 20.609C47.7007 20.5886 47.6593 20.5697 47.6191 20.5499C47.3508 20.4127 47.0769 20.2888 46.8168 20.1333C46.4791 19.9309 46.1363 19.7403 45.7676 19.6001C45.7501 19.5953 45.7334 19.588 45.7177 19.5786C45.5686 19.4667 45.3959 19.4113 45.2268 19.3425C44.8298 19.1796 44.4204 19.0584 44.0197 18.9088C43.7891 18.8226 43.5594 18.7359 43.3419 18.6172C43.1894 18.534 43.0365 18.4517 42.8814 18.3741C42.7016 18.2856 42.5221 18.1944 42.329 18.1363C42.2506 18.1122 42.1746 18.0801 42.1021 18.0407C41.8285 17.8946 41.5384 17.784 41.2716 17.6232C41.2398 17.6047 41.2066 17.5892 41.1723 17.5768C40.9684 17.498 40.7662 17.4139 40.5598 17.3434C39.966 17.1404 39.3608 16.9761 38.7668 16.7731C38.5516 16.6994 38.3318 16.6416 38.1089 16.6001C37.6895 16.5231 37.2683 16.4564 36.8455 16.4045C36.6385 16.3788 36.4321 16.3496 36.2271 16.3116C35.9685 16.2641 35.7107 16.2112 35.4651 16.1074C35.2303 16.0082 35.0015 15.892 34.7508 15.8377C34.7422 15.8348 34.7339 15.8309 34.7261 15.8262C34.466 15.7156 34.2061 15.605 33.9466 15.4942C33.7457 15.4064 33.5549 15.2955 33.3777 15.1635C33.2389 15.057 33.0885 14.9679 32.9297 14.8979C32.8633 14.8677 32.7991 14.8325 32.7377 14.7926C32.5729 14.6931 32.4085 14.5934 32.2457 14.4904C32.0909 14.3924 31.9386 14.2906 31.7855 14.1897C31.672 14.1142 31.5563 14.0375 31.4418 13.9613C31.3502 13.9006 31.2577 13.841 31.1667 13.779C30.8854 13.5878 30.6279 13.3612 30.3673 13.144C30.0401 12.8725 29.6813 12.6533 29.3252 12.4288C29.3096 12.419 29.2928 12.4116 29.2753 12.4066C29.1686 12.3771 29.0807 12.3075 28.9852 12.2544C28.9131 12.2145 28.8454 12.1658 28.7716 12.1301C28.549 12.0245 28.327 11.9165 28.0999 11.8224C27.839 11.7144 27.5747 11.6129 27.2885 11.6023C27.2615 11.5994 27.2347 11.5941 27.2086 11.5863C26.9412 11.5273 26.6698 11.5134 26.3976 11.5081C26.207 11.5046 26.0181 11.4922 25.8287 11.4724C25.5128 11.4394 25.1963 11.4232 24.8796 11.4724C24.8255 11.4779 24.7711 11.4797 24.7168 11.4777C24.6082 11.4795 24.4993 11.4798 24.3904 11.4819C24.2546 11.4839 24.1185 11.4872 23.9826 11.4898L23.5474 11.4984C23.4569 11.5002 23.3662 11.5037 23.2754 11.5028C23.0217 11.5003 22.7679 11.4963 22.514 11.491C22.4415 11.4915 22.3691 11.4853 22.2977 11.4727C22.1814 11.4534 22.0642 11.4411 21.9466 11.4358C21.739 11.4193 21.5312 11.3984 21.3264 11.3612C21.2371 11.345 21.1495 11.3216 21.0587 11.3258C20.812 11.3367 20.5715 11.2809 20.3279 11.2591C20.1697 11.2039 20.0055 11.2116 19.8425 11.2122C19.4341 11.2122 19.0266 11.1995 18.6194 11.1626C18.3126 11.1331 18.0046 11.1133 17.697 11.0959C17.3717 11.0776 17.0447 11.1048 16.7209 11.039C16.6851 11.0329 16.6488 11.0308 16.6126 11.0328C16.4002 11.0393 16.1988 10.9859 16.0015 10.9133C15.8818 10.8696 15.765 10.8168 15.6442 10.777C15.463 10.7179 15.3302 10.5934 15.2146 10.4441C15.1396 10.3482 15.0929 10.2318 15.0801 10.1089C15.0654 9.96806 15.0705 9.82572 15.0952 9.68638C15.1164 9.56363 15.2341 9.47806 15.3164 9.46448C15.3609 9.45711 15.4065 9.45858 15.4516 9.45445C15.5327 9.44678 15.6164 9.44767 15.6944 9.42671C15.8004 9.40152 15.9086 9.38797 16.0173 9.38629C16.0988 9.38718 16.18 9.37827 16.2595 9.35974C16.4779 9.29541 16.6985 9.24436 16.9214 9.20305C16.9426 9.19922 16.9591 9.16764 16.986 9.1405C16.9507 9.12524 16.9145 9.11223 16.8777 9.10155C16.5587 9.0325 16.2428 8.94221 15.9136 8.93985C15.841 8.93718 15.7687 8.93038 15.6969 8.91949C15.2826 8.86756 14.8677 8.823 14.4492 8.84012C14.1585 8.85221 13.871 8.88349 13.5939 8.9847C13.5171 9.01273 13.4371 9.03221 13.3603 9.06083C13.0957 9.15938 12.834 9.26384 12.6031 9.43793C12.5064 9.50809 12.4225 9.59562 12.3553 9.69641C12.1953 9.94427 12.1931 9.9425 12.1301 10.234C12.1182 10.2895 12.1043 10.3441 12.0927 10.3996C12.0757 10.4734 12.0748 10.5502 12.0899 10.6244C12.1293 10.7994 12.1571 10.9758 12.2163 11.1458Z" fill="#CA3604"/>
<path d="M2.97438 22.9792C3.2296 23.2534 3.53642 23.4537 3.84212 23.6579C3.8662 23.6717 3.89145 23.6832 3.91755 23.6921C4.19403 23.8102 4.4691 23.9323 4.74757 24.0462C4.90737 24.1133 5.07422 24.1606 5.24467 24.187C5.31655 24.1971 5.38737 24.2142 5.45622 24.238C5.6545 24.306 5.86075 24.3457 6.0693 24.356C6.12367 24.3577 6.17787 24.3632 6.23151 24.3726C6.35672 24.3965 6.48452 24.402 6.61121 24.3891C6.81012 24.3756 7.00961 24.3739 7.2087 24.3841C7.40862 24.3909 7.61194 24.3805 7.80194 24.3227C8.13202 24.2227 8.46068 24.1114 8.76212 23.9329C8.80972 23.9063 8.86181 23.8896 8.91553 23.8836C9.10496 23.8562 9.29524 23.876 9.48495 23.8704C9.61184 23.864 9.73902 23.8696 9.86494 23.8872C10.2869 23.9559 10.7157 23.9485 11.1388 23.9949C11.4081 24.0244 11.6792 24.0539 11.952 24.0424C11.9973 24.0443 12.0425 24.0488 12.0873 24.0557C12.1687 24.0613 12.2504 24.0698 12.3317 24.0683C12.604 24.0636 12.8756 24.081 13.1476 24.0902C13.4465 24.1005 13.7459 24.0937 14.0451 24.0943C14.4481 24.0276 14.8575 24.0226 15.2605 23.9527C15.5911 23.8954 15.9252 23.8612 16.253 23.7919C16.3506 23.7712 16.4492 23.7565 16.5459 23.7329C16.8355 23.6544 17.1299 23.5965 17.427 23.5596C17.4812 23.5537 17.5345 23.5414 17.5884 23.5337C17.7143 23.5166 17.8396 23.4924 17.9661 23.4856C18.1646 23.4744 18.3631 23.4561 18.5534 23.3861C18.6384 23.3566 18.7306 23.3487 18.8196 23.3321C18.8999 23.3171 18.9804 23.3026 19.0609 23.2891C19.3201 23.2442 19.5799 23.2026 19.8382 23.1539C20.0342 23.117 20.2352 23.0902 20.4221 23.0241C20.6022 22.9604 20.7854 22.9061 20.9637 22.8388C21.0661 22.8001 21.1723 22.7739 21.2805 22.7606C21.3525 22.7515 21.424 22.7379 21.4951 22.724C21.5223 22.72 21.5482 22.7094 21.5707 22.693C21.5932 22.6766 21.6116 22.6548 21.6245 22.6296C21.6871 22.5009 21.7841 22.4024 21.8771 22.2988C21.9387 22.2301 21.9937 22.1545 22.0487 22.0799C22.159 21.93 22.2668 21.7757 22.41 21.6582C22.5424 21.5438 22.6693 21.4225 22.7899 21.2947C22.8418 21.2425 22.8994 21.1961 22.9547 21.1472C23.0236 21.0861 23.0965 21.0291 23.1611 20.963C23.3486 20.7715 23.5374 20.5809 23.7175 20.3818C24.0337 20.0315 24.351 19.6818 24.6142 19.2844C24.6913 19.1681 24.7843 19.064 24.866 18.9507C25.0775 18.6556 25.2718 18.3505 25.4672 18.0451C25.5826 17.8645 25.694 17.6813 25.7978 17.493C25.9059 17.2971 26.0026 17.0944 26.1027 16.894C26.2028 16.6937 26.2901 16.4857 26.4129 16.2977C26.4409 16.2491 26.4657 16.1987 26.4872 16.1466C26.6573 15.7902 26.7509 15.4048 26.8785 15.0321C26.8813 15.0236 26.8811 15.0136 26.8833 15.0044C26.8884 14.9813 26.8861 14.9571 26.8768 14.9355C26.8676 14.9138 26.8519 14.8959 26.832 14.8843C26.7163 14.8106 26.5938 14.7489 26.4863 14.6607C26.4486 14.6351 26.4075 14.6152 26.3644 14.6016C26.2042 14.5367 26.0445 14.4694 25.8823 14.4107C25.7122 14.3488 25.5383 14.2927 25.3651 14.2393C25.1564 14.1744 24.9321 14.1939 24.7256 14.1145C24.7083 14.109 24.6904 14.106 24.6723 14.1056C24.4647 14.0902 24.2587 14.0556 24.0569 14.0024C23.9768 13.9864 23.8957 13.9766 23.8142 13.9728C23.747 13.9672 23.6897 13.9847 23.6531 14.0522C23.6202 14.1196 23.5815 14.1837 23.5374 14.2437C23.3809 14.4405 23.2573 14.6604 23.1192 14.8702C23.0528 14.9708 22.9998 15.0817 22.9297 15.1794C22.8695 15.262 22.8193 15.352 22.78 15.4473C22.6932 15.6542 22.6198 15.867 22.5602 16.0841C22.5527 16.1208 22.5385 16.1557 22.5186 16.187C22.471 16.2566 22.4399 16.3369 22.4278 16.4213C22.4021 16.5419 22.3472 16.6537 22.2682 16.7459C22.1879 16.8483 22.1062 16.9495 22.03 17.0551C21.9591 17.1534 21.8672 17.2301 21.7898 17.3225C21.6656 17.47 21.5207 17.6004 21.3857 17.7394C21.3194 17.8038 21.2568 17.8722 21.1982 17.9442C21.1342 18.0237 21.0634 18.097 20.9867 18.1631C20.8089 18.3242 20.6388 18.4927 20.533 18.7176C20.5117 18.7593 20.4836 18.7968 20.4499 18.8285C20.2965 18.9802 20.1947 19.1693 20.0852 19.354C20.0149 19.4744 19.9477 19.5995 19.9573 19.7494C19.9568 19.7589 19.9549 19.7683 19.9517 19.7772C19.9435 19.8092 19.9263 19.838 19.9024 19.8599C19.8785 19.8818 19.8488 19.8958 19.8172 19.9002C19.7635 19.904 19.7095 19.9008 19.6565 19.8908C19.458 19.8494 19.2617 19.8539 19.0609 19.8639C18.753 19.8792 18.4501 19.9362 18.1425 19.9569C17.8634 19.9754 17.5881 20.0454 17.309 20.0796C17.148 20.0997 16.99 20.1484 16.825 20.1419C16.7796 20.1419 16.7345 20.1484 16.6908 20.1613C16.4702 20.218 16.2442 20.241 16.0216 20.2838C15.799 20.3266 15.5755 20.3679 15.3569 20.4275C14.9012 20.5511 14.4449 20.6733 13.9858 20.7833C13.677 20.8574 13.3713 20.9465 13.0662 21.0359C12.7787 21.12 12.4957 21.2221 12.2067 21.3015C11.5148 21.4909 10.8172 21.6538 10.1207 21.827C10.0595 21.8439 9.99695 21.8554 9.93385 21.8615C9.72599 21.8763 9.51784 21.8866 9.30998 21.8975C9.28281 21.8976 9.25569 21.8953 9.22888 21.8907C9.08539 21.8718 8.94276 21.8515 8.80607 21.7948C8.69718 21.7497 8.57921 21.7287 8.47202 21.6768C8.08948 21.4933 7.68908 21.3788 7.283 21.2761C7.23937 21.2634 7.19478 21.2547 7.14972 21.2498C6.86983 21.2289 6.5908 21.1876 6.30864 21.2153C6.18245 21.2277 6.05512 21.233 5.92837 21.2333C5.80115 21.2338 5.67498 21.2573 5.55547 21.3027C5.37114 21.3723 5.21007 21.4711 5.15449 21.688C5.15024 21.7037 5.13379 21.7161 5.11933 21.7349C4.9991 21.7568 4.87517 21.7842 4.75069 21.8013C4.53517 21.8308 4.31937 21.8636 4.10244 21.8775C3.839 21.8943 3.58803 21.9893 3.31977 21.9899C3.24746 22.0634 3.17345 22.133 3.10624 22.2091C3.07 22.2511 3.04059 22.2989 3.01918 22.3507C2.96031 22.4991 2.91678 22.6535 2.88931 22.8113C2.88683 22.8301 2.88834 22.8491 2.89373 22.8672C2.89912 22.8852 2.90826 22.9018 2.9205 22.9158C2.93725 22.938 2.95524 22.9592 2.97438 22.9792Z" fill="#CA3604"/>
<path d="M51.9285 48.6433C51.7584 48.4479 51.5769 48.2629 51.3543 48.1278C51.1139 47.9768 50.8841 47.8083 50.6666 47.6235C50.4398 47.4359 50.2112 47.2482 49.9634 47.0906C49.8554 47.0212 49.7519 46.9445 49.6534 46.8611C49.4419 46.684 49.2315 46.5052 48.9944 46.3633C48.8608 46.2836 48.7392 46.1862 48.6087 46.0977C48.4491 45.99 48.2877 45.885 48.1267 45.7785C48.0807 45.7489 48.0359 45.7159 47.9891 45.687C47.709 45.5139 47.4283 45.3412 47.1472 45.1688C47.116 45.15 47.0808 45.1393 47.0485 45.1213C46.8866 45.0366 46.7199 44.9599 46.5639 44.8646C46.2423 44.6678 45.8969 44.5244 45.5566 44.3701C45.2495 44.2305 44.9416 44.0945 44.6537 43.9136C44.5605 43.8549 44.4595 43.8107 44.354 43.7823C44.2397 43.7522 44.1304 43.7043 44.0299 43.6401C43.9369 43.5812 43.8387 43.5318 43.7367 43.4925C43.4814 43.3919 43.2455 43.2521 43.0022 43.1267C42.9617 43.1057 42.9237 43.0718 42.8811 43.0644C42.7626 43.0435 42.6602 42.9827 42.5527 42.9346C42.2953 42.8192 42.0295 42.723 41.7894 42.5669C41.7216 42.5229 41.6396 42.5023 41.5625 42.4713C41.4278 42.4161 41.2908 42.3657 41.1584 42.3049C41.0107 42.2333 40.8592 42.1704 40.7047 42.1163C40.5924 42.0803 40.4823 42.0374 40.3749 41.988C39.9113 41.7717 39.4366 41.5846 38.957 41.4117C38.6309 41.2937 38.3181 41.1462 37.9997 41.0116C37.8074 40.9281 37.6231 40.8262 37.449 40.7071C37.3503 40.641 37.2442 40.5864 37.1393 40.5301C36.9295 40.4185 36.7199 40.307 36.5075 40.201C36.3603 40.1279 36.2115 40.0571 36.0586 39.9986C35.7952 39.898 35.5298 39.8015 35.2621 39.7142C34.9337 39.6068 34.6045 39.5003 34.2696 39.4117C33.9347 39.3232 33.6074 39.2197 33.2688 39.1509C32.7794 39.0515 32.2925 38.9399 31.7942 38.8936C31.6502 38.8803 31.5073 38.8526 31.3635 38.8316C31.2739 38.8186 31.1843 38.8054 31.0947 38.7939C31.0051 38.7824 30.9143 38.7765 30.8244 38.7644C30.5462 38.7248 30.2692 38.6732 29.9884 38.6522C29.9434 38.6496 29.8982 38.6496 29.8532 38.6522C29.842 38.6533 29.8311 38.6568 29.8212 38.6625C29.8114 38.6681 29.8027 38.6758 29.7959 38.6851C29.789 38.6943 29.784 38.705 29.7812 38.7163C29.7784 38.7277 29.7779 38.7395 29.7797 38.7511C29.8454 39.0545 29.9487 39.3477 30.0871 39.6233C30.1247 39.6882 30.1482 39.761 30.1558 39.8363C30.1617 39.9426 30.2011 40.0355 30.232 40.1341C30.2941 40.3309 30.3772 40.5212 30.4149 40.7263C30.4432 40.9033 30.4959 41.0753 30.5712 41.2367C30.5971 41.2971 30.6179 41.3597 30.6333 41.4238C30.6753 41.5675 30.6994 41.7189 30.8142 41.8278C30.8252 41.8427 30.8338 41.8595 30.8394 41.8773C30.9072 42.0207 30.9744 42.1647 31.0428 42.3078C31.0528 42.3291 31.0678 42.3474 31.0866 42.3609C31.1053 42.3744 31.127 42.3826 31.1497 42.3849C31.2217 42.3952 31.294 42.402 31.3658 42.4123C31.5989 42.4456 31.8337 42.4681 32.058 42.5513C32.1362 42.5751 32.2158 42.5941 32.2962 42.6082C32.4725 42.6498 32.6526 42.6805 32.8245 42.7375C32.9707 42.7871 33.1196 42.8275 33.2705 42.8584C33.4476 42.8977 33.6224 42.9469 33.7943 43.006C34.0971 43.1028 34.3898 43.2379 34.7017 43.3043C34.7195 43.3083 34.7368 43.3139 34.7536 43.3211C34.9213 43.3911 35.0889 43.4615 35.2564 43.5321C35.4237 43.6029 35.5927 43.6705 35.758 43.7457C36.0484 43.8776 36.3535 43.9658 36.6436 44.1028C36.7664 44.1618 36.8935 44.2084 37.0086 44.2836C37.0387 44.3044 37.0701 44.3232 37.1025 44.34C37.2579 44.4149 37.4144 44.4875 37.5701 44.5622C37.9245 44.7304 38.2932 44.8617 38.6553 45.0107C38.7307 45.0417 38.8113 45.0594 38.889 45.0856C38.9576 45.1089 39.0262 45.1328 39.0929 45.1618C39.343 45.2706 39.5826 45.4043 39.8404 45.4952C39.9858 45.5465 40.1256 45.6132 40.2711 45.6657C40.4773 45.738 40.6729 45.8372 40.8802 45.9074C41.0875 45.9776 41.2821 46.0771 41.4808 46.1671C41.6056 46.2234 41.7267 46.288 41.8495 46.3441C41.991 46.4075 42.1282 46.4809 42.2601 46.5639C42.506 46.7242 42.7555 46.8785 43.0005 47.0402C43.1534 47.1408 43.3062 47.2435 43.4486 47.3588C43.5488 47.4399 43.6529 47.5156 43.7605 47.5858C43.8471 47.6372 43.9285 47.6974 44.0038 47.7654C44.1884 47.9487 44.3977 48.0965 44.6081 48.244C44.6682 48.2862 44.7354 48.3208 44.7867 48.3724C44.9138 48.4999 45.0666 48.579 45.2266 48.6477C45.268 48.6654 45.3074 48.6887 45.3474 48.7103C45.604 48.8495 45.8578 48.9953 46.1184 49.126C46.4774 49.306 46.8293 49.501 47.1702 49.7162C47.3709 49.8433 47.5743 49.9661 47.7577 50.1216C47.8223 50.1732 47.892 50.2175 47.9656 50.2538C48.4105 50.4878 48.854 50.7235 49.2885 50.9785C49.3116 50.9925 49.3371 51.002 49.3636 51.0062C49.3741 51.0077 49.3959 50.9882 49.3979 50.9767C49.4039 50.949 49.4028 50.9203 49.3948 50.8932C49.3302 50.7274 49.2644 50.5621 49.194 50.3987C49.157 50.3126 49.1148 50.2291 49.0678 50.1484C48.9598 49.9628 48.8503 49.7787 48.8002 49.5642C48.7936 49.537 48.7809 49.5114 48.7718 49.4848C48.7182 49.3329 48.5912 49.2252 48.543 49.0691C48.5283 49.0345 48.5066 49.0036 48.4794 48.9785C48.4097 48.9024 48.3635 48.8109 48.3116 48.7221C48.2032 48.5362 48.0779 48.368 47.8939 48.2479C47.756 48.1594 47.6315 48.0461 47.5022 47.9428C47.4817 47.9242 47.4627 47.9039 47.4455 47.882C47.4243 47.8578 47.4194 47.7979 47.4427 47.7781C47.4618 47.7594 47.487 47.7489 47.5133 47.7486C47.5755 47.7599 47.6365 47.7771 47.6956 47.8C47.9755 47.9106 48.2686 47.9811 48.5668 48.0095C48.8387 48.0334 49.1041 48.0953 49.3713 48.1482C49.5315 48.1797 49.6906 48.2178 49.8499 48.2538C49.9651 48.2798 50.0842 48.2942 50.1936 48.3361C50.4667 48.4403 50.752 48.4978 51.0288 48.5872C51.1504 48.6268 51.2775 48.6383 51.4011 48.6657C51.5868 48.7067 51.7697 48.7601 51.9546 48.8062C51.9677 48.8094 51.9847 48.7955 52 48.7896C51.9919 48.7341 51.9668 48.6828 51.9285 48.6433Z" fill="#CA3604"/>
<path d="M4.75664 8.17257C4.77743 8.22485 4.79366 8.27897 4.80513 8.33427C4.83604 8.46204 4.87631 8.58685 4.91544 8.71226C4.97216 8.8893 5.02689 9.06899 5.03823 9.26079C5.04927 9.43031 5.07615 9.59831 5.11848 9.76241C5.14722 9.87136 5.15749 9.98469 5.14882 10.0973C5.13549 10.2664 5.11876 10.4349 5.1026 10.6036C5.10104 10.6226 5.09604 10.641 5.08785 10.6579C5.0439 10.7426 5.03766 10.8382 5.01186 10.9282C4.99319 11.0008 4.96862 11.0716 4.93841 11.1398C4.87262 11.2773 4.8437 11.4239 4.82044 11.5732C4.81011 11.6387 4.81369 11.7056 4.83094 11.7695C4.93444 12.1545 5.06942 12.5195 5.36973 12.7966C5.50499 12.922 5.61558 13.0725 5.65812 13.2667C5.67704 13.3293 5.70435 13.3889 5.73922 13.4437C5.86399 13.6736 5.99444 13.8999 6.10361 14.1383C6.16231 14.2658 6.22867 14.3897 6.3265 14.4924C6.357 14.5274 6.38407 14.5654 6.40732 14.606C6.53748 14.8105 6.66254 15.0173 6.79638 15.22C7.10397 15.6984 7.43584 16.1593 7.79059 16.6009C7.87569 16.6992 7.95441 16.8031 8.02624 16.9122C8.17978 17.1683 8.35104 17.4124 8.53866 17.6425C8.75758 17.9081 8.96118 18.1843 9.19428 18.4363C9.38644 18.6369 9.56327 18.8529 9.72315 19.0822C9.80179 19.1977 9.8953 19.3014 10.001 19.3905C10.2038 19.5643 10.3995 19.747 10.5994 19.9243C10.6395 19.9626 10.6839 19.9958 10.7315 20.0231C10.8878 20.1037 11.0196 20.2182 11.1509 20.3347C11.2891 20.4573 11.4278 20.5789 11.5669 20.6994C11.6086 20.7357 11.652 20.7709 11.6954 20.8042C11.7328 20.8319 11.7789 20.8437 11.8244 20.8372C11.8695 20.8333 11.9139 20.8234 11.9566 20.8077C12.0228 20.7777 12.0915 20.7542 12.1619 20.7375C12.2404 20.7219 12.3144 20.685 12.3916 20.6605C12.5991 20.5947 12.8104 20.541 13.0132 20.4572C13.1067 20.4213 13.2041 20.3978 13.3033 20.3873C13.5364 20.3578 13.7692 20.3283 13.9946 20.2539C14.0377 20.2392 14.0816 20.2274 14.1262 20.2188C14.4846 20.1553 14.83 20.0417 15.1717 19.9166C15.202 19.902 15.2305 19.8839 15.2568 19.8626C15.2812 19.7133 15.3053 19.5744 15.3266 19.4351C15.3407 19.3421 15.3549 19.2489 15.3623 19.1551C15.3666 19.1222 15.3622 19.0887 15.3496 19.0582C15.337 19.0277 15.3167 19.0013 15.2908 18.9818C15.2389 18.944 15.1914 18.9002 15.149 18.8511C15.0685 18.7493 14.9953 18.6413 14.9191 18.536C14.7977 18.4702 14.7441 18.3522 14.6987 18.2277C14.6945 18.2193 14.6888 18.2118 14.682 18.2055C14.5867 18.1049 14.4991 17.996 14.3891 17.9105C14.3371 17.8729 14.2877 17.8316 14.2413 17.7868C14.1743 17.7234 14.1027 17.6654 14.0272 17.6133C13.8883 17.5095 13.7232 17.4442 13.6067 17.3064C13.5856 17.2886 13.5615 17.2752 13.5355 17.2669C13.4927 17.2514 13.4515 17.2317 13.4124 17.2079C13.3024 17.122 13.1737 17.0728 13.058 16.9999C12.9423 16.927 12.8379 16.8346 12.7279 16.7523C12.4776 16.5656 12.227 16.3787 11.9761 16.1917C11.9612 16.181 11.9469 16.1694 11.9333 16.1569C11.8054 16.035 11.6583 15.9415 11.5122 15.8467C11.4121 15.7818 11.31 15.7204 11.2111 15.6538C11.0361 15.5357 10.8591 15.4177 10.7165 15.2584C10.5376 15.058 10.3152 14.9043 10.1556 14.6839C10.1372 14.663 10.117 14.6441 10.0952 14.6272C10.0212 14.5582 9.94745 14.4885 9.87287 14.4207C9.81871 14.3711 9.76483 14.3203 9.70783 14.2731C9.54336 14.1401 9.3718 14.0158 9.21356 13.8754C9.08201 13.7599 8.94405 13.6525 8.8004 13.5538C8.61976 13.4278 8.43998 13.3012 8.26813 13.1619C8.20325 13.1107 8.1327 13.0678 8.058 13.0341C7.9998 13.0086 7.94538 12.9747 7.89637 12.9332C7.77159 12.8246 7.64654 12.7163 7.51808 12.6128C7.35616 12.4824 7.22543 12.2537 7.20615 12.0395C7.19991 11.9636 7.19934 11.8875 7.16304 11.8202C7.11605 11.7278 7.09632 11.623 7.10633 11.519C7.10848 11.4059 7.11796 11.2931 7.13469 11.1814C7.17694 10.9598 7.2243 10.7388 7.28271 10.5207C7.36155 10.2257 7.39217 9.9306 7.34623 9.62726C7.33797 9.57134 7.33578 9.51463 7.33971 9.45819C7.34757 9.37282 7.32518 9.2874 7.27676 9.218C7.25431 9.18842 7.23703 9.15496 7.22571 9.11916C7.17524 8.92412 7.05415 8.76743 6.96539 8.59364C6.92532 8.51956 6.87871 8.44952 6.82616 8.38443C6.62766 8.12684 6.42263 7.87514 6.25164 7.5963C6.2304 7.56554 6.20759 7.53599 6.1833 7.50778C6.06306 7.35435 5.94226 7.2012 5.82259 7.04718C5.73156 6.92915 5.65245 6.80109 5.54951 6.69516C5.40092 6.54143 5.2821 6.36409 5.15024 6.19708C5.12727 6.16758 5.106 6.13807 5.08247 6.10856C5.07031 6.09469 5.05692 6.08205 5.04248 6.0708C4.99626 6.03273 4.87234 6.05339 4.84568 6.1065C4.8103 6.17234 4.77895 6.24044 4.75182 6.31039C4.6917 6.47799 4.63555 6.64736 4.58168 6.81673C4.5314 6.96851 4.50721 7.12833 4.51021 7.28884C4.51305 7.42162 4.51021 7.55204 4.58281 7.66859C4.62607 7.84169 4.68425 8.01036 4.75664 8.17257Z" fill="#CA3604"/>
<path d="M23.4217 42.5784C23.3367 42.4574 23.2561 42.3311 23.1665 42.2146C23.1134 42.1506 23.0697 42.0787 23.0369 42.0012C22.9671 41.827 22.8784 41.6616 22.7726 41.5082C22.6464 41.3244 22.5191 41.1411 22.3932 40.957C22.3672 40.9185 22.3438 40.8782 22.3232 40.8363C22.2285 40.6433 22.1335 40.4504 22.0419 40.2559C21.9763 40.1108 21.8936 39.9747 21.7957 39.8508C21.6473 39.6727 21.5128 39.4826 21.3936 39.2822C21.3653 39.2341 21.3284 39.1916 21.2978 39.145C21.2368 39.0517 21.1713 38.9606 21.1188 38.862C21.0849 38.7952 21.0329 38.7403 20.9691 38.7041C20.8979 38.6633 20.8204 38.6359 20.74 38.6233C20.5698 38.5958 20.396 38.5861 20.2341 38.5206C20.1232 38.4786 20.0062 38.4566 19.8881 38.4557C19.8073 38.4501 19.7271 38.4364 19.6488 38.415C19.4367 38.3654 19.2299 38.2987 19.0204 38.2409C18.8716 38.2006 18.7261 38.1484 18.5851 38.0848C18.4786 38.033 18.3684 37.9901 18.2553 37.9567C18.1763 37.9376 18.1 37.9078 18.0284 37.8682C17.9084 37.8018 17.7821 37.7485 17.6516 37.7092C17.5483 37.6742 17.4476 37.6313 17.3504 37.5808C17.2038 37.5076 17.0606 37.4268 16.9029 37.3784C16.8428 37.3573 16.7856 37.3281 16.7328 37.2916C16.5318 37.1648 16.3227 37.0524 16.1069 36.9553C15.8838 36.852 15.662 36.7455 15.4406 36.6381C15.2182 36.5321 15.0055 36.4055 14.8051 36.2598C14.7608 36.227 14.7157 36.1949 14.6689 36.1668C14.4962 36.0631 14.3317 35.9453 14.1769 35.8145C14.1299 35.7705 14.078 35.7324 14.0224 35.7009C13.9575 35.6658 13.8971 35.6224 13.8426 35.5717C13.7936 35.5301 13.7453 35.4864 13.6932 35.4492C13.424 35.258 13.1481 35.0781 12.8657 34.9095C12.7716 34.8538 12.6729 34.8063 12.577 34.7537C12.5492 34.738 12.5183 34.7289 12.4867 34.7271C12.455 34.7254 12.4234 34.7311 12.3941 34.7437C12.182 34.8266 11.9651 34.8883 11.7359 34.8912C11.6997 34.8931 11.6639 34.8998 11.6293 34.911C11.2167 35.029 10.7936 35.0771 10.3694 35.1196C10.0898 35.1474 9.81048 35.1786 9.53088 35.2046C9.3959 35.2173 9.26177 35.2341 9.1248 35.2076C9.05279 35.1979 8.97986 35.2158 8.91949 35.2577C8.92432 35.2757 8.92403 35.3017 8.93481 35.3091C8.98006 35.3397 9.02745 35.3667 9.07659 35.3899C9.58304 35.6217 10.0588 35.9202 10.4922 36.2781C10.7395 36.4846 10.9831 36.6965 11.2346 36.8977C11.4008 37.0308 11.5567 37.1715 11.6736 37.3548C11.6828 37.3711 11.6947 37.3856 11.7087 37.3976C11.8879 37.5286 12.0207 37.7106 12.1812 37.862C12.1875 37.8687 12.1944 37.8747 12.2019 37.88C12.3037 37.9464 12.3788 38.0399 12.4517 38.1373C12.5019 38.204 12.5592 38.2648 12.6156 38.3262C12.7032 38.4221 12.7857 38.5215 12.8637 38.6259C13.0032 38.8118 13.1473 38.9924 13.331 39.1373C13.3928 39.1926 13.4484 39.2549 13.4969 39.3229C13.587 39.4418 13.7002 39.5396 13.829 39.61C13.8847 39.6414 13.9384 39.6764 13.9898 39.7147C14.1316 39.8151 14.2756 39.9145 14.4151 40.0178C14.5493 40.1142 14.6935 40.1946 14.845 40.2574C15.1632 40.394 15.4794 40.5353 15.7964 40.6746C15.8713 40.7077 15.9439 40.7581 16.0219 40.7708C16.1676 40.7941 16.2986 40.8593 16.4353 40.9068C16.6072 40.9658 16.7799 41.021 16.9551 41.0697C17.1562 41.1258 17.3521 41.196 17.5529 41.2589C17.7781 41.3299 17.9936 41.4311 18.1938 41.5598C18.4439 41.7206 18.7229 41.8038 18.9951 41.9015C19.1914 41.9717 19.3921 42.0331 19.5881 42.1036C19.699 42.1438 19.8121 42.1792 19.9261 42.2087C20.3915 42.3294 20.8619 42.4282 21.3207 42.5778C21.3557 42.5876 21.3912 42.5952 21.4271 42.6005C21.6766 42.6474 21.9264 42.6938 22.1757 42.7413C22.2826 42.7616 22.389 42.7844 22.4956 42.8065C22.5755 42.8233 22.6547 42.8469 22.7352 42.8567C22.9428 42.8814 23.1472 42.9219 23.3511 42.9667C23.449 42.987 23.5493 42.9919 23.6486 42.9812C23.656 42.9812 23.6687 42.9738 23.669 42.9697C23.6724 42.9523 23.6707 42.9344 23.6642 42.918C23.5856 42.8038 23.5023 42.692 23.4217 42.5784Z" fill="#CA3604"/>
<path d="M20.7204 26.6629C20.6534 26.752 20.5944 26.8473 20.5443 26.9477C20.5205 26.9877 20.4937 27.0258 20.4643 27.0616C20.2525 27.3566 20.0359 27.6464 19.8473 27.958C19.8189 28.0055 19.7951 28.0562 19.7699 28.1055C19.7602 28.1247 19.7838 28.1645 19.807 28.1704C19.8419 28.1799 19.8775 28.1866 19.9134 28.1905C20.1312 28.1995 20.3493 28.1896 20.5656 28.161C20.6108 28.1571 20.6552 28.146 20.6971 28.1279C20.838 28.0619 20.9904 28.0262 21.1449 28.0232C21.1631 28.0238 21.1813 28.0209 21.1985 28.0146C21.319 27.9606 21.4472 27.9716 21.5734 27.963C21.6548 27.9577 21.7362 27.9503 21.8175 27.9438C22.0523 27.9259 22.2873 27.9081 22.5225 27.8904C22.5496 27.8875 22.5768 27.8875 22.6039 27.8904C22.7572 27.9093 22.9123 27.9058 23.0647 27.8801C23.1277 27.8738 23.1911 27.8716 23.2544 27.8733C23.3179 27.8715 23.3815 27.8748 23.4444 27.8689C23.5983 27.8574 23.7528 27.8591 23.9063 27.8742C23.9877 27.881 24.0691 27.8875 24.1505 27.8901C24.4134 27.8987 24.6762 27.9049 24.9391 27.9128C24.9845 27.9128 25.0299 27.9179 25.0749 27.9223C25.2374 27.9376 25.3999 27.9518 25.5621 27.9695C25.6432 27.9778 25.724 27.9887 25.8049 27.999C25.8933 28.0108 25.9807 28.048 26.0714 28.0129C26.1021 27.8996 26.0246 27.8196 25.9864 27.729C25.9058 27.5288 25.804 27.3387 25.6826 27.1622C25.6439 27.1099 25.6109 27.0532 25.5845 26.9931C25.5173 26.8273 25.4223 26.6797 25.3324 26.5272C25.2281 26.3502 25.1232 26.1752 25.0106 26.004C24.8515 25.7627 24.6986 25.5169 24.5172 25.2929C24.3636 25.108 24.2335 24.9033 24.1301 24.6839C24.1221 24.6668 24.1102 24.652 24.1017 24.6349C24.0683 24.5576 24.0337 24.4806 24.0039 24.4018C23.9707 24.3133 23.9409 24.2248 23.9123 24.1363C23.8903 24.0745 23.8733 24.0109 23.8615 23.9462C23.8281 23.7134 23.7631 23.4856 23.7626 23.2475C23.7586 23.2005 23.7513 23.1538 23.7407 23.1079C23.7323 23.0617 23.7268 23.015 23.724 22.9681C23.7189 22.7615 23.7181 22.5529 23.7124 22.3455C23.7053 22.0908 23.6968 21.8362 23.684 21.5818C23.6803 21.4974 23.6656 21.4139 23.6557 21.3316C23.6313 21.3316 23.6083 21.3242 23.599 21.3316C23.5329 21.3813 23.4705 21.436 23.4121 21.4951C23.2368 21.6857 23.0602 21.8754 22.8965 22.0764C22.82 22.1705 22.7264 22.2457 22.6547 22.3419C22.5781 22.4473 22.5089 22.5582 22.434 22.6647C22.413 22.6943 22.3804 22.7161 22.3583 22.7456C22.3103 22.802 22.2681 22.8635 22.2324 22.9291C22.1598 23.0843 22.0444 23.2059 21.9505 23.3443C21.9137 23.3992 21.8592 23.4386 21.7968 23.4552C21.7356 23.4718 21.6738 23.4965 21.6122 23.4965C21.4914 23.4965 21.3797 23.5317 21.2666 23.5656C21.2155 23.5851 21.1624 23.5984 21.1083 23.6051C20.8815 23.6146 20.66 23.6739 20.4414 23.7302C20.0806 23.8224 19.7156 23.8952 19.3476 23.9483C18.9708 24.0032 18.5984 24.0828 18.2233 24.1469C18.1073 24.1666 17.9904 24.1835 17.8736 24.1961C17.6846 24.2168 17.4949 24.2348 17.3048 24.2501C17.1422 24.2635 16.9794 24.2742 16.8164 24.2823C16.6897 24.2885 16.5635 24.2918 16.439 24.3272C16.3343 24.3569 16.2279 24.3801 16.1206 24.3968C15.8069 24.4446 15.4927 24.4897 15.178 24.5322C14.929 24.5659 14.9349 24.5617 14.8972 24.7889C14.8913 24.8258 14.8765 24.8612 14.8689 24.8981C14.8556 24.9631 14.8225 25.0218 14.7744 25.0654C14.5803 25.2499 14.3869 25.4352 14.1942 25.6213C14.1769 25.6405 14.1611 25.6612 14.1469 25.683C14.1588 25.7379 14.1985 25.7641 14.232 25.7942C14.3357 25.8857 14.4429 25.9734 14.5439 26.0669C14.714 26.2224 15.2528 26.642 15.4363 26.7603C15.6235 26.8755 15.8024 27.0047 15.9717 27.1468C16.1124 27.2664 16.2705 27.3617 16.4401 27.4292C16.701 27.5378 16.9693 27.6243 17.2364 27.7137C17.2795 27.7278 17.3243 27.7367 17.3686 27.747C17.6867 27.8214 18.0058 27.8928 18.3231 27.9704C18.5443 28.0244 18.7706 28.0415 18.9937 28.081C19.0207 28.085 19.0479 28.0868 19.0751 28.0863C19.0977 28.0885 19.1204 28.0841 19.1407 28.0737C19.161 28.0633 19.1781 28.0473 19.1902 28.0273C19.3178 27.8208 19.4486 27.6175 19.5731 27.4097C19.6411 27.2875 19.7178 27.1708 19.8025 27.0604C19.9082 26.9309 20.0129 26.8004 20.1223 26.6747C20.1834 26.605 20.2489 26.5395 20.3183 26.4788C20.4465 26.3658 20.5951 26.3487 20.7533 26.3926C20.7788 26.3997 20.8126 26.462 20.8024 26.485C20.7785 26.5473 20.7584 26.6125 20.7204 26.6629ZM17.7035 25.4579C17.6794 25.4709 17.6522 25.4763 17.6253 25.4734C17.5983 25.4705 17.5727 25.4595 17.5518 25.4416C17.4709 25.3816 17.4037 25.304 17.3547 25.2141C17.3356 25.1719 17.3292 25.1247 17.3362 25.0787C17.3493 24.9825 17.4638 24.8722 17.5552 24.8559C17.6085 24.8468 17.6635 24.8453 17.7154 24.8311C17.8254 24.8016 17.9519 24.8969 17.9553 25.0309C17.9553 25.0403 17.9553 25.0498 17.9575 25.0716C17.9549 25.1545 17.9295 25.2348 17.8845 25.3032C17.8395 25.3716 17.7767 25.4253 17.7035 25.4579Z" fill="#CA3604"/>
<path d="M19.2467 16.6359C19.2852 16.6872 19.3091 16.7507 19.3439 16.8055C19.3719 16.8539 19.406 16.8981 19.4455 16.9368C19.5683 17.0486 19.7058 17.1416 19.8538 17.213C19.9973 17.2794 20.1527 17.2838 20.3021 17.3133C20.4252 17.3378 20.5548 17.3278 20.6816 17.3311C20.827 17.3349 21.2042 17.193 21.31 17.0929C21.3498 17.0545 21.3871 17.0134 21.4217 16.9699C21.4566 16.9265 21.4861 16.8784 21.5201 16.8342C21.6556 16.6571 21.8037 16.4904 21.8638 16.2653C22.0033 16.0534 22.0929 15.8179 22.1757 15.5775C22.2074 15.4893 22.2453 15.4037 22.2891 15.3213C22.3527 15.1965 22.4235 15.0758 22.4876 14.9513C22.5449 14.8337 22.6134 14.7224 22.6921 14.6191C22.7268 14.5755 22.7565 14.5278 22.7803 14.4768C22.8605 14.3069 22.9504 14.1452 23.0829 14.0124C23.0885 14.005 23.0933 13.9968 23.097 13.9882C23.1075 13.9711 23.0882 13.9262 23.0687 13.9189C22.8764 13.8486 22.6745 13.8646 22.4763 13.8513C22.2324 13.8354 21.9874 13.8333 21.743 13.8218C21.6343 13.8158 21.526 13.8039 21.4186 13.7861C21.1593 13.741 20.898 13.7105 20.6356 13.6946C20.3464 13.6796 20.0574 13.6539 19.7673 13.6539C19.5498 13.6539 19.3317 13.6515 19.1151 13.6359C18.8984 13.6203 18.6821 13.6282 18.4657 13.5961C18.215 13.5589 17.961 13.5429 17.7083 13.5188C17.5639 13.5049 17.4196 13.4919 17.275 13.481C17.1482 13.4715 17.0198 13.4769 16.8953 13.455C16.7251 13.4255 16.5522 13.4234 16.3803 13.4143C16.1903 13.404 16.0003 13.3916 15.8103 13.3798C15.7295 13.3748 15.6487 13.3541 15.5614 13.3798C15.5285 13.4178 15.4888 13.4571 15.4567 13.5022C15.3207 13.6913 15.1475 13.8479 14.9486 13.9617C14.8462 14.0207 14.75 14.0947 14.6525 14.1626C14.6049 14.1953 14.5725 14.2372 14.5774 14.3019C14.5961 14.5559 14.6105 14.8103 14.6341 15.0637C14.6474 15.1766 14.6856 15.2848 14.7458 15.3798C14.8204 15.5095 14.9089 15.6301 15.0095 15.7392C15.1471 15.888 15.3107 16.0082 15.4916 16.0932C15.6266 16.1546 15.7706 16.1711 15.9096 16.2113C16.0415 16.2468 16.1786 16.2568 16.314 16.2408C16.4762 16.2237 16.635 16.185 16.7609 16.059C16.8128 16.0074 16.8794 15.9705 16.9361 15.9253C17.0303 15.848 17.1346 15.8427 17.2461 15.8663C17.2814 15.8754 17.3134 15.8952 17.338 15.9232C17.3626 15.9512 17.3787 15.9861 17.3842 16.0236C17.4029 16.1573 17.3416 16.2992 17.2194 16.3514C17.0677 16.4157 16.9302 16.5069 16.7824 16.5777C16.5902 16.6701 16.3919 16.727 16.1767 16.7073C16.0775 16.6981 15.9782 16.7008 15.8775 16.6984C15.8566 16.6984 15.833 16.7356 15.8395 16.7622C15.8501 16.7882 15.8584 16.8152 15.8645 16.8427C15.8841 17.077 15.9028 17.3116 15.9189 17.5462C15.9201 17.5943 15.918 17.6426 15.9127 17.6904C15.9062 17.8035 15.8968 17.9162 15.8934 18.0292C15.8843 18.3216 15.8778 18.614 15.8699 18.9064C15.8685 18.9628 15.8699 19.0197 15.8625 19.0758C15.8404 19.2823 15.8154 19.4889 15.7925 19.6954C15.7894 19.714 15.7914 19.7331 15.7981 19.7506C15.8073 19.7659 15.8215 19.7771 15.8381 19.7822C15.8558 19.7846 15.8738 19.7835 15.8911 19.7789C16.0976 19.753 16.2981 19.6828 16.5088 19.6869C16.7558 19.6311 17.0158 19.653 17.254 19.547C17.2798 19.5384 17.3068 19.5341 17.334 19.5343C17.5325 19.5202 17.731 19.509 17.9295 19.4921C17.9927 19.4857 18.0551 19.4728 18.1158 19.4535C18.263 19.4066 18.4156 19.3804 18.5695 19.3756C18.768 19.3735 18.9665 19.3387 19.165 19.3602C19.2421 19.3714 19.3207 19.3605 19.3923 19.3287C19.4639 19.2968 19.5258 19.2453 19.5714 19.1797C19.6255 19.1047 19.6885 19.0363 19.7435 18.9616C19.8257 18.8492 19.902 18.7317 19.9854 18.6202C20.1629 18.3818 20.3435 18.146 20.5225 17.9088C20.5272 17.9009 20.5316 17.8927 20.5355 17.8843C20.5387 17.8757 20.5401 17.8666 20.5398 17.8574C20.5395 17.8483 20.5373 17.8393 20.5335 17.831C20.5297 17.8227 20.5244 17.8153 20.5177 17.8093C20.5111 17.8032 20.5034 17.7986 20.495 17.7958C20.3784 17.7819 20.261 17.7737 20.1453 17.7533C19.9752 17.7238 19.8138 17.6612 19.653 17.5972C19.3085 17.46 19.0575 17.2107 18.8636 16.8923C18.8442 16.8602 18.8287 16.8259 18.8173 16.7899C18.7524 16.5833 18.6838 16.3786 18.7019 16.1555C18.7073 16.09 18.7019 16.0236 18.7019 15.9575C18.7039 15.7096 18.688 15.4665 18.5457 15.2532C18.5359 15.2371 18.5303 15.2187 18.5295 15.1998C18.527 15.1617 18.5295 15.1204 18.5618 15.0977C18.584 15.0832 18.6101 15.0769 18.6361 15.0797C18.7001 15.0858 18.7593 15.1176 18.8012 15.1682C18.8564 15.2306 18.9067 15.2975 18.9518 15.3682C18.9863 15.4342 19.013 15.5042 19.0314 15.5769C19.0416 15.6117 19.0292 15.653 19.036 15.6893C19.0711 15.8737 19.1091 16.0575 19.146 16.2414C19.1554 16.2871 19.1778 16.3352 19.1704 16.3777C19.1528 16.4807 19.1885 16.5577 19.2467 16.6359ZM19.8569 15.7076C19.8992 15.6149 19.9491 15.5255 19.9987 15.437C20.0134 15.4134 20.0327 15.3933 20.0554 15.378C20.2012 15.2741 20.3552 15.2558 20.5145 15.3396C20.5458 15.3579 20.5731 15.3828 20.5945 15.4128C20.6711 15.5122 20.6952 15.6309 20.7023 15.7483C20.6966 15.851 20.6702 15.9354 20.6007 16.0068C20.4921 16.118 20.3535 16.1543 20.2131 16.1897C20.1951 16.1922 20.1768 16.1885 20.1609 16.1794C20.0293 16.1095 19.9219 16.015 19.86 15.8699C19.8481 15.8447 19.8416 15.8171 19.841 15.7891C19.8405 15.761 19.8459 15.7332 19.8569 15.7076Z" fill="#CA3604"/>
<path d="M12.9431 16.1696C12.9961 16.2038 13.0514 16.2345 13.1014 16.2729C13.3126 16.4355 13.5219 16.6004 13.732 16.7645C13.7754 16.7981 13.8171 16.8338 13.8636 16.8639C13.977 16.9391 14.0953 17.0114 14.2107 17.0855C14.3261 17.1596 14.4154 17.2702 14.5464 17.3198C14.5705 17.333 14.5915 17.3514 14.6083 17.3738C14.8309 17.6098 15.0538 17.8429 15.2744 18.079C15.3112 18.1182 15.3387 18.1675 15.3716 18.2094C15.375 18.2138 15.3884 18.2124 15.396 18.2094C15.4037 18.2065 15.4159 18.2003 15.4159 18.1952C15.4187 17.9695 15.4269 17.7435 15.4196 17.5166C15.4162 17.3762 15.3978 17.2366 15.3646 17.1005C15.337 16.9915 15.3189 16.8801 15.3107 16.7677C15.308 16.7109 15.3007 16.6544 15.2888 16.5989C15.2804 16.5627 15.2613 16.5301 15.2341 16.5057C15.1269 16.4192 15.0192 16.3325 14.9049 16.2569C14.7268 16.1389 14.5782 15.9896 14.4364 15.83C14.3426 15.724 14.268 15.6098 14.2442 15.4638C14.2327 15.4183 14.2177 15.3739 14.1994 15.331C14.1391 15.1534 14.101 14.9684 14.0859 14.7807C14.0726 14.5936 14.0913 14.4042 14.1004 14.2159C14.1055 14.1408 14.1157 14.0662 14.131 13.9926C14.137 13.9599 14.1497 13.929 14.1683 13.9019C14.1869 13.8748 14.211 13.8523 14.2388 13.8359C14.2935 13.8034 14.3522 13.7801 14.4109 13.753C14.5853 13.6736 14.7404 13.5545 14.8646 13.4045C14.8791 13.3868 14.8768 13.3546 14.8833 13.3254C14.6869 13.2812 14.488 13.2494 14.2878 13.2301C14.0363 13.2071 13.7822 13.1826 13.5434 13.0826C13.5182 13.0718 13.4913 13.0657 13.464 13.0646C13.4552 13.0653 13.4465 13.0679 13.4386 13.0722C13.4306 13.0764 13.4236 13.0823 13.4178 13.0894C13.3702 13.1582 13.3368 13.2366 13.3197 13.3195C13.2649 13.5288 13.2101 13.7379 13.1552 13.9468C13.0957 14.1743 13.0571 14.4072 13.0398 14.6423C13.0346 14.727 13.0252 14.8113 13.0115 14.8949C12.9783 15.0797 12.9653 15.2677 12.9726 15.4555C12.974 15.5684 12.9692 15.6813 12.9581 15.7937C12.9444 15.9184 12.9394 16.0441 12.9431 16.1696Z" fill="#CA3604"/>
<path d="M20.2341 15.7476C20.2353 15.7658 20.2379 15.7839 20.242 15.8016C20.243 15.8062 20.245 15.8104 20.2479 15.814C20.2508 15.8176 20.2545 15.8205 20.2587 15.8223C20.2628 15.8241 20.2674 15.8248 20.2719 15.8245C20.2764 15.8241 20.2807 15.8226 20.2845 15.8202C20.2931 15.817 20.3005 15.8111 20.3056 15.8032C20.3108 15.7954 20.3133 15.786 20.3129 15.7765C20.3116 15.749 20.3044 15.7221 20.2918 15.6979C20.2792 15.6737 20.2617 15.6526 20.2403 15.6363C20.2155 15.6349 20.1907 15.6406 20.1689 15.6529C20.1639 15.6567 20.1599 15.6617 20.157 15.6674C20.1542 15.6731 20.1526 15.6794 20.1523 15.6858C20.1521 15.6922 20.1533 15.6986 20.1558 15.7045C20.1582 15.7104 20.1619 15.7156 20.1666 15.7199C20.1865 15.7348 20.2097 15.7444 20.2341 15.7476Z" fill="#CA3604"/>
</svg>
